<svg xmlns="http://www.w3.org/2000/svg" xmlns:xlink="http://www.w3.org/1999/xlink" version="1.1" id="Layer_1" x="0px" y="0px" viewBox="0 0 48 48" enable-background="new 0 0 48 48" xml:space="preserve" height="100px" width="100px">
<g>
	<path fill="#000000" d="M47,41.6H35.5c-0.6,0-1-0.4-1-1v-8.3c0-0.6,0.4-1,1-1H47c0.6,0,1,0.4,1,1v8.3C48,41.2,47.6,41.6,47,41.6z    M36.5,39.6H46v-6.3h-9.5V39.6z"/>
	<path fill="#000000" d="M35.5,41.6H24c-0.6,0-1-0.4-1-1v-8.3c0-0.6,0.4-1,1-1h11.5c0.6,0,1,0.4,1,1v8.3   C36.5,41.2,36.1,41.6,35.5,41.6z M25,39.6h9.5v-6.3H25V39.6z"/>
	<path fill="#000000" d="M24,41.6H12.5c-0.6,0-1-0.4-1-1v-8.3c0-0.6,0.4-1,1-1H24c0.6,0,1,0.4,1,1v8.3C25,41.2,24.6,41.6,24,41.6z    M13.5,39.6H23v-6.3h-9.5V39.6z"/>
	<path fill="#000000" d="M41.3,33.3H29.8c-0.6,0-1-0.4-1-1V24c0-0.6,0.4-1,1-1h11.5c0.6,0,1,0.4,1,1v8.3   C42.3,32.9,41.9,33.3,41.3,33.3z M30.8,31.3h9.5V25h-9.5V31.3z"/>
	<path fill="#000000" d="M29.8,33.3H18.3c-0.6,0-1-0.4-1-1V24c0-0.6,0.4-1,1-1h11.5c0.6,0,1,0.4,1,1v8.3   C30.8,32.9,30.4,33.3,29.8,33.3z M19.3,31.3h9.5V25h-9.5V31.3z"/>
	<path fill="#000000" d="M35.5,25H24c-0.6,0-1-0.4-1-1v-8.3c0-0.6,0.4-1,1-1h11.5c0.6,0,1,0.4,1,1V24C36.5,24.6,36.1,25,35.5,25z    M25,23h9.5v-6.3H25V23z"/>
	<path fill="#000000" d="M29.8,16.7H18.3c-0.6,0-1-0.4-1-1V7.4c0-0.6,0.4-1,1-1h11.5c0.6,0,1,0.4,1,1v8.3   C30.8,16.3,30.4,16.7,29.8,16.7z M19.3,14.7h9.5V8.4h-9.5V14.7z"/>
	<path fill="#000000" d="M24,25H12.5c-0.6,0-1-0.4-1-1v-8.3c0-0.6,0.4-1,1-1H24c0.6,0,1,0.4,1,1V24C25,24.6,24.6,25,24,25z M13.5,23   H23v-6.3h-9.5V23z"/>
	<path fill="#000000" d="M18.3,33.3H6.8c-0.6,0-1-0.4-1-1V24c0-0.6,0.4-1,1-1h11.5c0.6,0,1,0.4,1,1v8.3   C19.3,32.9,18.9,33.3,18.3,33.3z M7.8,31.3h9.5V25H7.8V31.3z"/>
	<path fill="#000000" d="M12.5,41.6H1c-0.6,0-1-0.4-1-1v-8.3c0-0.6,0.4-1,1-1h11.5c0.6,0,1,0.4,1,1v8.3   C13.5,41.2,13.1,41.6,12.5,41.6z M2,39.6h9.5v-6.3H2V39.6z"/>
</g>
</svg>