<svg width="251px" height="92px" viewBox="0 0 251 92" version="1.1" xmlns="http://www.w3.org/2000/svg" xmlns:xlink="http://www.w3.org/1999/xlink">
  <title>Scally CSS framework logo</title>
  <defs>
    <path d="M0.0952518703,77.9682703 L0.219053352,62.998552 L15.5704371,62.998552 C18.706757,62.998552 21.3478288,61.9437857 23.4937319,59.8342214 C25.639635,57.724657 26.7125705,55.1283091 26.7125705,52.0450997 C26.7125705,45.7975437 24.5047994,40.6454158 20.0891912,36.5885613 C15.6735829,32.5317068 11.3612078,28.5560491 7.15193633,24.6614687 C2.52999124,18.7384612 0.219053352,10.7060098 0.219053352,0.563873522 L15.5704371,0.563873522 C15.5704371,9.89463886 17.8401082,17.3185712 22.3795186,22.8358933 C26.58879,26.7304737 30.7979983,30.6249956 35.0072697,34.5195759 C39.6292148,39.14439 41.9401527,44.9861728 41.9401527,52.0450997 C41.9401527,59.2663007 39.3816143,65.3920591 34.2644608,70.4225586 C29.1473073,75.4530582 22.9160284,77.9682703 15.5704371,77.9682703 L0.0952518703,77.9682703 Z M86.2468576,77.1503252 L86.2468576,64.6832026 L73.463525,64.6832026 C69.743489,64.6832026 66.6322328,63.4531255 64.1296631,60.9929344 C61.6270934,58.5327432 60.3758274,55.4741731 60.3758274,51.8171322 C60.3758274,48.0935996 61.6101844,44.9851615 64.0789356,42.4917245 C66.5476868,39.9982875 69.608216,38.7515878 73.260615,38.7515878 L86.3483126,38.8513247 L86.2468576,26.1847283 L73.260615,26.1847283 C66.158728,26.1847283 60.1391237,28.6781278 55.2016213,33.6650018 C50.264119,38.6518757 47.7954048,44.7025253 47.7954048,51.8171322 C47.7954048,58.931739 50.24721,64.9325206 55.1508938,69.8196571 C60.0545777,74.7067936 66.124909,77.1503252 73.36207,77.1503252 L86.2468576,77.1503252 Z M128.71142,77.1503252 L141.190388,77.1503252 L141.190388,26.1847283 L115.217902,26.1847283 C108.183652,26.1847283 102.197866,28.6781278 97.2603637,33.6650018 C92.3228614,38.6518757 89.8541472,44.7025253 89.8541472,51.8171322 C89.8541472,58.9982307 92.2890434,65.015635 97.1589087,69.8695256 C102.028774,74.7234162 108.082196,77.1503252 115.319357,77.1503252 L124.044489,77.1503252 L124.044489,64.8826766 L115.217902,64.8826766 C111.63314,64.8826766 108.58952,63.6193541 106.08695,61.0926713 C103.584381,58.5659885 102.333115,55.4741731 102.333115,51.8171322 C102.333115,48.0935996 103.567472,44.9851615 106.036223,42.4917245 C108.504974,39.9982875 111.565503,38.7515878 115.217902,38.7515878 L128.812875,38.8513247 L128.71142,77.1503252 Z M149.532245,91.681429 L162.214122,91.681429 L162.214122,0.0715742367 L149.6337,0.0715742367 L149.532245,91.681429 Z M171.345074,91.681429 L184.026952,91.681429 L184.026952,0.0715742367 L171.446529,0.0715742367 L171.345074,91.681429 Z M202.615766,26.2844652 L190.339709,26.1847283 L207.789972,77.1503252 L218.950024,77.1503252 L220.167485,75.6542704 L202.615766,26.2844652 Z M227.046057,91.7533689 C242.529725,65.0110645 250.271444,47.6602474 250.271444,39.700397 C250.271444,34.1843603 247.483715,30.466328 241.908174,28.5461887 C236.332632,26.6260493 227.010609,25.6659941 213.941824,25.6659941 L213.941824,38.6530535 C221.044425,38.6530535 225.270409,38.7228757 226.619903,38.8625222 C232.657113,39.4909314 235.675673,41.9347085 235.675673,46.1939267 C235.675673,49.6850891 233.988831,54.9042987 230.615095,61.851712 C227.24136,68.7991253 221.612634,78.8011557 213.728747,91.8581033 L227.046057,91.7533689 Z" id="path-scally"></path>
    <path d="M2.96276419,84.9367867 C3.66664801,84.9367867 4.25454214,85.1061879 4.72646424,85.4449953 C5.11839955,85.7354016 5.37835274,86.0943708 5.50633161,86.5219134 C5.53032765,86.6267824 5.51033125,86.7195497 5.44634181,86.8002181 C5.39035106,86.8808865 5.31036546,86.9333202 5.20638262,86.9575208 C5.09440111,86.9817213 4.99441911,86.9736546 4.90643364,86.9333204 C4.8024508,86.8849193 4.73846232,86.8042521 4.71446628,86.6913163 C4.59448609,86.3121747 4.39052282,86.0338728 4.10257035,85.8564022 C3.81461788,85.6869985 3.41868918,85.602298 2.91477236,85.602298 C2.23488458,85.602298 1.71097892,85.8886666 1.34303966,86.4614124 C1.01509379,86.9615567 0.85112332,87.6028611 0.85112332,88.3853448 C0.85112332,89.1839622 1.01509379,89.8333334 1.34303966,90.3334776 C1.70298025,90.8820229 2.2268859,91.1562915 2.91477236,91.1562915 C3.48267861,91.1562915 3.91460084,91.0675575 4.21055198,90.890087 C4.50650313,90.7126164 4.72646352,90.4141477 4.87043976,89.9946719 C4.90243448,89.8817361 4.97442151,89.8010689 5.08640303,89.7526678 C5.18238718,89.7123336 5.28236918,89.7042669 5.38635202,89.7284674 C5.49833353,89.7526679 5.57831913,89.8051016 5.62631121,89.8857701 C5.68230196,89.9664385 5.68630124,90.0672725 5.63830917,90.1882752 C5.39834878,90.6964863 5.10640135,91.0796555 4.76245812,91.3377945 C4.30653338,91.6685351 3.7066414,91.8339029 2.96276419,91.8339029 C1.99492395,91.8339029 1.25905646,91.4870338 0.755139644,90.7932853 C0.315212262,90.1882721 0.0952518703,89.3896667 0.0952518703,88.397445 C0.0952518703,87.4374907 0.323210821,86.6388853 0.779135563,86.0016047 C1.29904974,85.2917225 2.02691867,84.9367867 2.96276419,84.9367867 L2.96276419,84.9367867 Z M9.34567866,84.9367867 C8.6977856,84.9367867 8.17387994,85.0819877 7.77394596,85.3723941 C7.35001594,85.6789341 7.13805411,86.102437 7.13805411,86.6429155 C7.13805411,87.1430597 7.31402242,87.5423625 7.66596432,87.8408356 C7.98591151,88.1231751 8.50181861,88.3571101 9.2137011,88.5426475 C9.99757171,88.7362517 10.5334752,88.9500198 10.8214277,89.1839583 C11.0613881,89.3694956 11.1813665,89.6276307 11.1813665,89.9583713 C11.1813665,90.3133124 11.0413917,90.5956476 10.7614379,90.8053856 C10.4654867,91.039324 10.0575602,91.1562915 9.53764601,91.1562915 C8.91374899,91.1562915 8.46183037,91.039324 8.18187658,90.8053856 C7.91792015,90.5875808 7.78594392,90.2689453 7.78594392,89.8494695 C7.77794524,89.7365337 7.73395316,89.6518331 7.65396637,89.5953652 C7.58197825,89.5388973 7.49399409,89.5146971 7.39001126,89.522764 C7.28602842,89.522764 7.20204354,89.5550308 7.13805411,89.6195656 C7.05806731,89.6921672 7.02207379,89.7849345 7.03007247,89.8978703 C7.05406851,90.527084 7.27802818,91.007054 7.7019582,91.3377945 C8.12588823,91.6685351 8.73377876,91.8339029 9.52564805,91.8339029 C10.3175173,91.8339029 10.9254079,91.6483683 11.3493379,91.2772935 C11.7412732,90.9465529 11.9372379,90.51095 11.9372379,89.9704715 C11.9372379,89.429993 11.7732674,89.0064901 11.4453216,88.6999501 C11.1013783,88.3692095 10.5094849,88.1070411 9.66962356,87.9134369 C8.98173711,87.7359663 8.50982209,87.5463984 8.25386434,87.3447273 C8.01390395,87.1511231 7.89392556,86.8889546 7.89392556,86.558214 C7.89392556,86.2758745 8.02990107,86.0419396 8.30185618,85.8564022 C8.57381129,85.6869985 8.91375007,85.602298 9.32168274,85.602298 C9.85759428,85.602298 10.2615215,85.703132 10.5334766,85.904803 C10.7894344,86.0903404 10.9334085,86.3605756 10.9654032,86.7155167 C10.9734019,86.8284525 11.0213932,86.9171864 11.1093787,86.9817212 C11.1893655,87.0381891 11.2813489,87.0623892 11.3853318,87.0543224 C11.4973133,87.0381887 11.5892967,86.9978551 11.6612848,86.9333204 C11.7412716,86.8526519 11.7772652,86.7558513 11.7692665,86.6429155 C11.7292731,86.1508381 11.5333084,85.7555687 11.1813665,85.4570955 C10.7654351,85.1102213 10.1535453,84.9367867 9.34567866,84.9367867 L9.34567866,84.9367867 Z M15.8005809,84.9367867 C15.1526878,84.9367867 14.6287822,85.0819877 14.2288482,85.3723941 C13.8049182,85.6789341 13.5929563,86.102437 13.5929563,86.6429155 C13.5929563,87.1430597 13.7689246,87.5423625 14.1208665,87.8408356 C14.4408137,88.1231751 14.9567208,88.3571101 15.6686033,88.5426475 C16.4524739,88.7362517 16.9883774,88.9500198 17.2763299,89.1839583 C17.5162903,89.3694956 17.6362687,89.6276307 17.6362687,89.9583713 C17.6362687,90.3133124 17.4962939,90.5956476 17.2163401,90.8053856 C16.920389,91.039324 16.5124624,91.1562915 15.9925482,91.1562915 C15.3686512,91.1562915 14.9167326,91.039324 14.6367788,90.8053856 C14.3728224,90.5875808 14.2408461,90.2689453 14.2408461,89.8494695 C14.2328475,89.7365337 14.1888554,89.6518331 14.1088686,89.5953652 C14.0368805,89.5388973 13.9488963,89.5146971 13.8449135,89.522764 C13.7409306,89.522764 13.6569458,89.5550308 13.5929563,89.6195656 C13.5129695,89.6921672 13.476976,89.7849345 13.4849747,89.8978703 C13.5089707,90.527084 13.7329304,91.007054 14.1568604,91.3377945 C14.5807904,91.6685351 15.188681,91.8339029 15.9805503,91.8339029 C16.7724196,91.8339029 17.3803101,91.6483683 17.8042401,91.2772935 C18.1961754,90.9465529 18.3921401,90.51095 18.3921401,89.9704715 C18.3921401,89.429993 18.2281697,89.0064901 17.9002238,88.6999501 C17.5562806,88.3692095 16.9643871,88.1070411 16.1245258,87.9134369 C15.4366393,87.7359663 14.9647243,87.5463984 14.7087666,87.3447273 C14.4688062,87.1511231 14.3488278,86.8889546 14.3488278,86.558214 C14.3488278,86.2758745 14.4848033,86.0419396 14.7567584,85.8564022 C15.0287135,85.6869985 15.3686523,85.602298 15.776585,85.602298 C16.3124965,85.602298 16.7164238,85.703132 16.9883789,85.904803 C17.2443366,86.0903404 17.3883107,86.3605756 17.4203054,86.7155167 C17.4283041,86.8284525 17.4762954,86.9171864 17.5642809,86.9817212 C17.6442677,87.0381891 17.7362512,87.0623892 17.840234,87.0543224 C17.9522155,87.0381887 18.0441989,86.9978551 18.1161871,86.9333204 C18.1961739,86.8526519 18.2321674,86.7558513 18.2241687,86.6429155 C18.1841753,86.1508381 17.9882106,85.7555687 17.6362687,85.4570955 C17.2203373,85.1102213 16.6084475,84.9367867 15.8005809,84.9367867 L15.8005809,84.9367867 Z M24.9190301,85.1424902 L24.3191321,85.1424902 C24.1991519,85.1424902 24.1031692,85.1747571 24.0311811,85.2392918 C23.9671917,85.3038266 23.9351974,85.3804604 23.9351974,85.4691957 C23.9351974,85.557931 23.9671917,85.6345648 24.0311811,85.6990996 C24.1031692,85.7717012 24.1991519,85.8080014 24.3191321,85.8080014 L24.9190301,85.8080014 L24.9190301,91.4224959 C24.9190301,91.5515654 24.9550236,91.6564328 25.0270117,91.7371012 C25.0989999,91.801636 25.186984,91.8339029 25.2909669,91.8339029 C25.386951,91.8339029 25.4709359,91.7976026 25.542924,91.725001 C25.6229108,91.6443326 25.6629036,91.5434986 25.6629036,91.4224959 L25.6629036,85.8080014 L26.5387546,85.8080014 C26.6587348,85.8080014 26.7547176,85.7717012 26.8267057,85.6990996 C26.8906951,85.6345648 26.9226893,85.557931 26.9226893,85.4691957 C26.9226893,85.3804604 26.8906951,85.3038266 26.8267057,85.2392918 C26.7547176,85.1747571 26.6587348,85.1424902 26.5387546,85.1424902 L25.6629036,85.1424902 L25.6629036,83.7388666 C25.6629036,83.5855966 25.7028964,83.4605624 25.7828832,83.3637603 C25.8788673,83.2508245 26.0148429,83.1943574 26.1908138,83.1943574 L26.5387546,83.1943574 C26.6587348,83.1943574 26.7547176,83.1580572 26.8267057,83.0854556 C26.8906951,83.0209208 26.9226893,82.944287 26.9226893,82.8555517 C26.9226893,82.7587496 26.8906951,82.6780824 26.8267057,82.6135476 C26.7547176,82.5490129 26.6587348,82.516746 26.5387546,82.516746 L26.0588363,82.516746 C25.690897,82.516746 25.4029488,82.6377468 25.1949832,82.8797521 C25.0110135,83.0975569 24.9190301,83.3677921 24.9190301,83.6904658 L24.9190301,85.1424902 Z M28.5304159,85.3723941 L28.5304159,91.4345961 C28.5304159,91.5555988 28.5664094,91.6523994 28.6383976,91.725001 C28.7103857,91.7895358 28.7983698,91.8218027 28.9023527,91.8218027 C28.9983368,91.8218027 29.0823217,91.7895358 29.1543098,91.725001 C29.2342966,91.6523994 29.2742894,91.5555988 29.2742894,91.4345961 L29.2742894,86.7155167 C29.4182656,86.4009098 29.6262282,86.1548748 29.8981833,85.9774043 C30.2021331,85.7757332 30.5500705,85.6748992 30.9420058,85.6748992 C31.1419728,85.6748992 31.2379555,85.549865 31.2299568,85.2997929 C31.2219581,85.0577876 31.1299747,84.9367867 30.9540037,84.9367867 C30.5700671,84.9367867 30.2261291,85.0335874 29.9221792,85.2271916 C29.6902175,85.3723948 29.4742564,85.5861629 29.2742894,85.8685024 L29.2742894,85.3723941 C29.2742894,85.2594583 29.2342966,85.1707243 29.1543098,85.1061896 C29.0823217,85.0577885 28.9983368,85.0335884 28.9023527,85.0335884 C28.7983698,85.0335884 28.7103857,85.0618219 28.6383976,85.1182898 C28.5664094,85.1828245 28.5304159,85.2675251 28.5304159,85.3723941 L28.5304159,85.3723941 Z M36.6890284,90.0672731 C36.5050588,90.3980137 36.237107,90.6561488 35.8851651,90.8416862 C35.4932298,91.0514241 35.0213148,91.1562915 34.4694059,91.1562915 C33.9814864,91.1562915 33.6215512,91.0514241 33.3895895,90.8416862 C33.1656265,90.6480819 33.0536467,90.3536466 33.0536467,89.9583713 C33.0536467,89.5469623 33.1736251,89.2363935 33.4135854,89.0266556 C33.6615445,88.800784 34.0854682,88.6475163 34.6853692,88.5668479 C35.2852701,88.4861794 35.7571852,88.3934121 36.1011284,88.2885432 C36.3810822,88.1998079 36.5770469,88.1070406 36.6890284,88.0102385 L36.6890284,90.0672731 Z M35.0453079,84.9367867 C34.3734188,84.9367867 33.8335161,85.0860211 33.4255834,85.3844943 C33.0096521,85.6991012 32.7536982,86.166971 32.657714,86.7881179 C32.633718,86.9091206 32.6577136,87.0059212 32.7297018,87.0785228 C32.7936912,87.1511244 32.8736768,87.191458 32.9696609,87.1995248 C33.0736438,87.2075917 33.1616279,87.1833915 33.2336161,87.1269236 C33.3216015,87.0704557 33.3735922,86.9897885 33.3895895,86.8849195 C33.4295829,86.4815774 33.5695577,86.175042 33.8095181,85.9653041 C34.0814732,85.7232988 34.4893998,85.602298 35.03331,85.602298 C35.5932176,85.602298 36.0131419,85.7071653 36.2930957,85.9169032 C36.5570522,86.1185743 36.6890284,86.417043 36.6890284,86.8123183 C36.6890284,87.1591926 36.56905,87.3971609 36.3290896,87.5262303 C36.0811305,87.6633667 35.5292299,87.7924342 34.6733712,87.9134369 C33.705531,88.0344395 33.0376512,88.3046747 32.669712,88.7241505 C32.4217529,89.0145569 32.2977752,89.4259597 32.2977752,89.9583713 C32.2977752,90.5472508 32.4777428,91.0030206 32.8376834,91.3256943 C33.2056227,91.6645017 33.7495247,91.8339029 34.4694059,91.8339029 C34.9973187,91.8339029 35.4692338,91.7411356 35.8851651,91.5555982 C36.1891149,91.4184619 36.461066,91.2329273 36.7010264,90.9989888 C36.7010264,91.2490609 36.7730134,91.4265288 36.9169896,91.5313978 C37.0929606,91.6443336 37.4089037,91.7008006 37.8648284,91.7008006 C37.9768099,91.7008006 38.0647941,91.6645004 38.1287835,91.5918988 C38.1847743,91.5273641 38.2127693,91.4507302 38.2127693,91.3619949 C38.2047706,91.2651928 38.1727763,91.1845256 38.1167856,91.1199908 C38.0527961,91.0554561 37.9728105,91.0231892 37.8768264,91.0231892 C37.7328502,91.0231892 37.6208703,90.9828556 37.5408835,90.9021872 C37.4688954,90.8295856 37.4329019,90.7247182 37.4329019,90.5875819 L37.4329019,86.7518173 C37.4329019,86.1145367 37.2009437,85.6426335 36.7370202,85.3360935 C36.3290876,85.0698877 35.7651891,84.9367867 35.0453079,84.9367867 L35.0453079,84.9367867 Z M39.5325448,85.4449953 L39.5325448,91.4587966 C39.5325448,91.5717324 39.5685383,91.6644997 39.6405264,91.7371012 C39.7125146,91.801636 39.8004987,91.8339029 39.9044815,91.8339029 C40.0004657,91.8339029 40.0844506,91.801636 40.1564387,91.7371012 C40.2364255,91.6644997 40.2764183,91.5717324 40.2764183,91.4587966 L40.2764183,86.7639175 C40.5403747,86.3444417 40.8203243,86.045973 41.1162755,85.8685024 C41.4122266,85.6910319 41.7721618,85.602298 42.1960918,85.602298 C42.5800284,85.602298 42.8839737,85.7152321 43.1079367,85.9411037 C43.3079037,86.1508416 43.4078857,86.4291435 43.4078857,86.7760177 L43.4078857,91.4587966 C43.4078857,91.5717324 43.4438792,91.6644997 43.5158674,91.7371012 C43.5878555,91.801636 43.6758396,91.8339029 43.7798225,91.8339029 C43.8758066,91.8339029 43.9597915,91.801636 44.0317796,91.7371012 C44.1117664,91.6644997 44.1517592,91.5717324 44.1517592,91.4587966 L44.1517592,86.8728193 C44.3837209,86.4210761 44.6436741,86.0984073 44.9316266,85.904803 C45.219579,85.703132 45.5915121,85.602298 46.0474368,85.602298 C46.4473708,85.602298 46.7553153,85.7152321 46.9712797,85.9411037 C47.1712467,86.1508416 47.2712287,86.4291435 47.2712287,86.7760177 L47.2712287,91.4587966 C47.2712287,91.5717324 47.3072222,91.6644997 47.3792103,91.7371012 C47.4511984,91.801636 47.5391826,91.8339029 47.6431654,91.8339029 C47.7391496,91.8339029 47.8231345,91.801636 47.8951226,91.7371012 C47.9751094,91.6644997 48.0151022,91.5717324 48.0151022,91.4587966 L48.0151022,86.6550157 C48.0151022,86.2194062 47.8511317,85.8362369 47.5231858,85.5054963 C47.1472479,85.1263547 46.6473379,84.9367867 46.0234409,84.9367867 C45.5675162,84.9367867 45.1555903,85.0416541 44.7876511,85.251392 C44.4517065,85.4369294 44.1797555,85.6950645 43.9717898,86.0258051 C43.8278136,85.7192651 43.6398474,85.4772634 43.4078857,85.2997929 C43.0799399,85.0577876 42.668014,84.9367867 42.1720959,84.9367867 C41.7801606,84.9367867 41.3962297,85.0416541 41.0202918,85.251392 C40.716342,85.4207957 40.4683866,85.6345639 40.2764183,85.8927028 L40.2764183,85.4449953 C40.2764183,85.307859 40.2364255,85.2029916 40.1564387,85.13039 C40.0844506,85.0577884 40.0004657,85.0214882 39.9044815,85.0214882 C39.8004987,85.0214882 39.7125146,85.0577884 39.6405264,85.13039 C39.5685383,85.2029916 39.5325448,85.307859 39.5325448,85.4449953 L39.5325448,85.4449953 Z M54.3860187,89.7889684 C54.1940504,90.2084443 53.97409,90.5230464 53.7261309,90.7327843 C53.4061837,91.0151238 53.0062557,91.1562915 52.526335,91.1562915 C51.9184353,91.1562915 51.4345224,90.8779896 51.0745819,90.3213774 C50.7626333,89.8535005 50.5906643,89.2767299 50.5586696,88.5910483 L55.2738677,88.5910483 L55.2738677,88.397445 C55.2738677,87.4536244 55.0419095,86.6550189 54.577986,86.0016047 C54.0660705,85.2917225 53.3821937,84.9367867 52.526335,84.9367867 C51.6704762,84.9367867 50.9905987,85.2917225 50.4866818,86.0016047 C50.0307571,86.6550189 49.8027981,87.4536244 49.8027981,88.397445 C49.8027981,89.3331988 50.0307571,90.1237375 50.4866818,90.7690849 C50.9905987,91.4789671 51.6704762,91.8339029 52.526335,91.8339029 C53.1342346,91.8339029 53.6621395,91.6766018 54.1100656,91.3619949 C54.549993,91.0635217 54.8859325,90.6319521 55.1178942,90.0672731 C55.1658863,89.9462705 55.1658863,89.8333364 55.1178942,89.7284674 C55.0779008,89.6397321 55.0099131,89.5792317 54.9139289,89.5469644 C54.8099461,89.5066302 54.7099641,89.5025968 54.6139799,89.5348642 C54.5099971,89.5832652 54.4340108,89.6679658 54.3860187,89.7889684 L54.3860187,89.7889684 Z M50.5826655,87.9134369 C50.6306576,87.3245573 50.8026266,86.8163539 51.0985778,86.3888112 C51.4585184,85.8644664 51.9344327,85.602298 52.526335,85.602298 C53.1182372,85.602298 53.5981508,85.8684998 53.9660901,86.4009114 C54.2620412,86.8365209 54.4340103,87.340691 54.4820024,87.9134369 L50.5826655,87.9134369 Z M58.2373637,91.3861953 C58.3093518,91.6846685 58.4493266,91.8339029 58.6572923,91.8339029 C58.8652579,91.8339029 59.009232,91.6846685 59.0892188,91.3861953 L60.516976,86.4130116 L61.9447332,91.3861953 C62.0167213,91.6846685 62.1566961,91.8339029 62.3646618,91.8339029 C62.5726274,91.8339029 62.7166015,91.6846685 62.7965883,91.3861953 L64.7522557,85.3723941 C64.7842504,85.2594583 64.7682533,85.1626576 64.7042639,85.0819892 C64.6482731,85.0174545 64.5682875,84.9730875 64.4643047,84.948887 C64.3603218,84.9246864 64.2643391,84.9327531 64.1763536,84.9730874 C64.0803695,85.0053547 64.0203803,85.0698885 63.9963843,85.1666906 L62.3646618,90.2608764 L60.8889127,85.251392 C60.8249233,85.0416541 60.6969463,84.9367867 60.504978,84.9367867 C60.3210084,84.9367867 60.1970307,85.0416541 60.1330413,85.251392 L58.6572923,90.2487762 L57.0255698,85.1666906 C56.9935751,85.0698885 56.9295866,85.0053547 56.8336024,84.9730874 C56.7456169,84.9327531 56.6536335,84.9246864 56.5576494,84.948887 C56.4536665,84.9730875 56.3736809,85.0174545 56.3176902,85.0819892 C56.2537007,85.1626576 56.2417029,85.2594583 56.2816963,85.3723941 L58.2373637,91.3861953 Z M68.9635395,84.9609872 C68.0116966,84.9609872 67.2678306,85.3159229 66.731919,86.0258051 C66.2599969,86.6550188 66.0240394,87.4495909 66.0240394,88.4095452 C66.0240394,89.3614327 66.2599969,90.1519714 66.731919,90.7811851 C67.2678306,91.4991342 68.0116966,91.8581033 68.9635395,91.8581033 C69.9073837,91.8581033 70.6472505,91.4991342 71.183162,90.7811851 C71.6630828,90.1519714 71.9030396,89.3614327 71.9030396,88.4095452 C71.9030396,87.4495909 71.6630828,86.6550188 71.183162,86.0258051 C70.6472505,85.3159229 69.9073837,84.9609872 68.9635395,84.9609872 L68.9635395,84.9609872 Z M68.9635395,85.6264984 C69.6674233,85.6264984 70.2153246,85.912867 70.6072599,86.4856128 C70.9672005,86.9938239 71.1471681,87.6351283 71.1471681,88.4095452 C71.1471681,89.1678284 70.9672005,89.8050995 70.6072599,90.3213774 C70.2153246,90.8941232 69.6674233,91.1804919 68.9635395,91.1804919 C68.251657,91.1804919 67.6957571,90.8941232 67.2958231,90.3213774 C66.9518799,89.8131663 66.7799109,89.1758953 66.7799109,88.4095452 C66.7799109,87.6351283 66.9518799,86.9938239 67.2958231,86.4856128 C67.6957571,85.912867 68.251657,85.6264984 68.9635395,85.6264984 L68.9635395,85.6264984 Z M73.7387274,85.3723941 L73.7387274,91.4345961 C73.7387274,91.5555988 73.7747209,91.6523994 73.846709,91.725001 C73.9186971,91.7895358 74.0066813,91.8218027 74.1106641,91.8218027 C74.2066483,91.8218027 74.2906332,91.7895358 74.3626213,91.725001 C74.4426081,91.6523994 74.4826009,91.5555988 74.4826009,91.4345961 L74.4826009,86.7155167 C74.6265771,86.4009098 74.8345397,86.1548748 75.1064948,85.9774043 C75.4104446,85.7757332 75.7583819,85.6748992 76.1503172,85.6748992 C76.3502842,85.6748992 76.4462669,85.549865 76.4382683,85.2997929 C76.4302696,85.0577876 76.3382862,84.9367867 76.1623152,84.9367867 C75.7783786,84.9367867 75.4344405,85.0335874 75.1304907,85.2271916 C74.898529,85.3723948 74.6825679,85.5861629 74.4826009,85.8685024 L74.4826009,85.3723941 C74.4826009,85.2594583 74.4426081,85.1707243 74.3626213,85.1061896 C74.2906332,85.0577885 74.2066483,85.0335884 74.1106641,85.0335884 C74.0066813,85.0335884 73.9186971,85.0618219 73.846709,85.1182898 C73.7747209,85.1828245 73.7387274,85.2675251 73.7387274,85.3723941 L73.7387274,85.3723941 Z M77.8300316,82.9160527 L77.8300316,91.4587966 C77.8300316,91.5717324 77.8660251,91.6644997 77.9380132,91.7371012 C78.0100013,91.801636 78.0979855,91.8339029 78.2019683,91.8339029 C78.2979525,91.8339029 78.3819374,91.7976026 78.4539255,91.725001 C78.5339123,91.6523994 78.5739051,91.5555988 78.5739051,91.4345961 L78.5739051,89.2444593 L79.7257092,88.0949399 L82.0293174,91.6645 C82.1013055,91.7613021 82.193289,91.8177692 82.3052705,91.8339029 C82.4012546,91.8419697 82.4932381,91.8137362 82.5812235,91.7492014 C82.6612103,91.6927335 82.7092017,91.6120663 82.7251991,91.5071974 C82.7411964,91.4023284 82.7132015,91.297461 82.6412133,91.1925921 L80.2416214,87.5867314 L82.3172684,85.5175965 C82.4132526,85.4288613 82.4652432,85.3320606 82.4732419,85.2271916 C82.4732419,85.1384564 82.4412477,85.0577891 82.3772582,84.9851876 C82.3052701,84.9206528 82.2212852,84.8843526 82.1253011,84.8762857 C82.0213182,84.8762857 81.9253355,84.9166193 81.8373501,84.9972878 L78.5739051,88.2522426 L78.5739051,82.9160527 C78.5739051,82.7869832 78.5339123,82.6861492 78.4539255,82.6135476 C78.3819374,82.5490129 78.2979525,82.516746 78.2019683,82.516746 C78.0979855,82.516746 78.0100013,82.5490129 77.9380132,82.6135476 C77.8660251,82.6861492 77.8300316,82.7869832 77.8300316,82.9160527 L77.8300316,82.9160527 Z" id="path-css-framework"></path>
  </defs>
  <g stroke="none" stroke-width="1" fill-rule="evenodd">
    <g transform="translate(0.000000, 0.078615)">
      <g id="scally">
        <use fill="none" xlink:href="#path-scally"></use>
        <use fill="none" xlink:href="#path-scally"></use>
        <use fill="none" xlink:href="#path-scally"></use>
        <use fill-rule="evenodd" xlink:href="#path-scally"></use>
        <use fill="none" xlink:href="#path-scally"></use>
      </g>
      <g id="css-framework">
        <use fill="none" xlink:href="#path-css-framework"></use>
        <use fill-rule="evenodd" xlink:href="#path-css-framework"></use>
      </g>
    </g>
  </g>
</svg>