<svg xmlns="http://www.w3.org/2000/svg" viewBox="0 0 100 67.278"><path d="M99.96 11.7c-.004-.022-.015-.04-.02-.06-.023-.065-.052-.126-.086-.184-.015-.024-.03-.044-.046-.066-.038-.052-.08-.1-.13-.143-.02-.018-.037-.036-.058-.052-.014-.01-.024-.025-.04-.036-.05-.037-.106-.062-.163-.087-.01-.004-.015-.01-.023-.014l-.014-.007c-.005 0-.01-.003-.014-.005L86.06 5.623V5.11c0-.208-.022-.41-.067-.605-.09-.39-.265-.757-.516-1.1-.125-.17-.27-.335-.428-.494-.116-.112-.24-.222-.37-.33l-.16-.118c-.084-.064-.167-.128-.257-.19-.073-.05-.15-.096-.226-.143-.075-.05-.15-.097-.23-.144-.092-.053-.186-.104-.28-.155l-.21-.11c-.11-.054-.223-.107-.337-.16-.06-.027-.12-.055-.183-.082-.13-.057-.26-.11-.393-.165l-.15-.058c-.147-.056-.298-.112-.452-.165l-.105-.035c-.17-.057-.343-.113-.52-.166C80.084.563 78.88.326 77.63.18c-.5-.06-1.01-.105-1.52-.135h-.003C75.597.015 75.083 0 74.573 0h-.002C69.7 0 64.558 1.37 63.35 3.937c-.172.366-.265.757-.265 1.172v.415l-9.91 3.87c-.502-.058-1.01-.104-1.52-.133h-.003c-.51-.03-1.022-.046-1.532-.046-4.873 0-10.015 1.372-11.224 3.937-.172.366-.264.757-.264 1.172V20.587c0 3.318 5.918 5.108 11.487 5.108 5.57 0 11.488-1.79 11.488-5.108v-6.26c0-.21-.022-.41-.068-.605-.088-.39-.264-.757-.515-1.1-.125-.17-.27-.334-.43-.494-.114-.113-.237-.223-.37-.33-.05-.04-.104-.08-.157-.12-.085-.063-.168-.127-.258-.188-.072-.05-.148-.097-.226-.145-.074-.048-.15-.096-.23-.143-.09-.053-.185-.104-.28-.155-.07-.037-.138-.074-.21-.11-.108-.055-.222-.108-.335-.16-.06-.03-.12-.057-.183-.084-.13-.056-.26-.11-.394-.164l-.148-.06c-.15-.056-.3-.11-.454-.164l-.104-.035c-.172-.056-.344-.112-.52-.165-.004 0-.007 0-.01-.002l6.37-2.488V11.37c0 3.318 5.92 5.108 11.488 5.108 5.57 0 11.49-1.79 11.49-5.108V7.726l10.297 4.2-70.69 26.638-21.95-8.402 10.46-3.94v-2.083L.636 29.24c-.076.028-.148.064-.215.11-.01.007-.017.017-.026.024-.025.02-.046.04-.07.062-.043.04-.083.08-.117.125-.023.027-.043.056-.06.086-.03.046-.052.094-.073.145-.013.032-.027.063-.038.098-.02.068-.03.14-.034.212 0 .016-.006.03-.006.047V56.852c0 .404.25.767.626.91l24.69 9.45c.01.004.018.003.027.005.104.037.21.06.32.06.11 0 .216-.02.318-.058.01-.003.02-.002.027-.005L99.37 39.57c.38-.143.63-.505.63-.91v-26.7c0-.09-.016-.176-.04-.26zM59.66 20.584c0 1.29-3.714 3.16-9.538 3.16v-4.313c3.602 0 7.34-.753 9.538-2.18v3.333zm-2.494-8.29l.01.005c.217.084.417.173.607.262l.14.066c.185.09.36.184.518.278l.015.01c.15.09.286.183.41.276.032.025.063.05.096.074.118.096.228.192.318.287.25.267.38.53.38.77 0 1.29-3.714 3.162-9.538 3.162-.43 0-.846-.014-1.252-.033-.123-.005-.24-.014-.36-.02-.29-.02-.577-.042-.854-.068-.116-.012-.23-.022-.342-.035-.326-.038-.644-.08-.95-.13-.042-.006-.084-.01-.125-.017-.36-.06-.702-.126-1.032-.2-.048-.01-.092-.022-.14-.033-.282-.065-.552-.135-.81-.208l-.152-.044c-1.38-.41-2.395-.927-2.97-1.444-.024-.02-.045-.04-.065-.06-.05-.05-.102-.098-.146-.147-.058-.064-.11-.13-.153-.193-.02-.028-.034-.057-.05-.084-.03-.052-.057-.104-.077-.156-.01-.024-.02-.048-.027-.072-.02-.074-.038-.147-.038-.217 0-.08.015-.163.043-.248.026-.075.065-.152.112-.23.018-.026.04-.053.06-.08.035-.05.07-.102.117-.154.027-.034.063-.067.096-.1.044-.046.09-.09.14-.136.044-.038.09-.075.14-.113.05-.04.1-.08.156-.12.058-.042.12-.083.184-.125.052-.036.107-.07.164-.104.075-.045.153-.09.236-.136l.156-.082c.098-.05.196-.1.302-.15l.114-.05c1.055-.474 2.492-.883 4.24-1.12h.017c.25-.035.507-.065.77-.09.012 0 .02-.002.032-.003.264-.026.534-.048.81-.065h.003c.53-.034 1.078-.056 1.65-.056.6 0 1.18.02 1.734.058.928.062 1.784.174 2.567.32l.164.03c.62.122 1.19.265 1.708.424l.155.05c.25.08.493.162.717.25zm26.948-.924c0 1.29-3.715 3.16-9.538 3.16V10.22c3.602 0 7.34-.753 9.538-2.18v3.333zm-9.54-3.1c-.43 0-.845-.013-1.25-.033-.123-.005-.24-.014-.36-.02-.292-.02-.577-.042-.855-.07-.115-.01-.23-.02-.342-.034-.326-.037-.645-.08-.95-.128-.042-.006-.085-.01-.125-.018-.36-.06-.7-.126-1.03-.2-.05-.01-.094-.02-.14-.032-.284-.065-.554-.135-.812-.208l-.15-.044c-1.382-.41-2.397-.927-2.973-1.444l-.064-.06c-.05-.05-.1-.1-.145-.148-.058-.064-.11-.13-.153-.193-.02-.03-.033-.057-.05-.084-.03-.053-.056-.104-.076-.156-.01-.024-.02-.048-.027-.073-.022-.074-.038-.147-.038-.217 0-.08.015-.163.043-.248.025-.075.064-.152.11-.23l.06-.08c.035-.052.072-.102.117-.154.028-.034.064-.067.097-.1.044-.046.09-.09.14-.136.044-.038.09-.075.14-.112.05-.04.102-.08.156-.12.058-.042.12-.083.184-.125l.164-.103c.075-.046.152-.09.236-.136l.155-.082c.098-.05.196-.1.302-.15l.114-.05c1.056-.475 2.492-.883 4.24-1.12.006 0 .013 0 .02-.002.25-.033.506-.063.77-.09.01 0 .02 0 .03-.002.265-.026.534-.048.81-.066h.004c.528-.034 1.076-.056 1.647-.056.603 0 1.18.02 1.736.058.93.062 1.784.175 2.568.32.054.01.108.02.162.032.62.12 1.19.265 1.708.423l.156.05c.25.08.492.164.716.25.005 0 .007.003.01.004.218.084.417.173.607.262l.14.066c.185.09.36.184.517.278l.015.01c.152.09.286.183.41.276.033.024.064.05.096.074.12.096.23.192.32.287.25.266.382.53.382.77 0 1.29-3.716 3.163-9.54 3.163zM26.64 64.896V40.28l71.415-26.912v24.618l-71.415 26.91zM25.665 34.91c5.57 0 11.49-1.792 11.49-5.11v-6.26c0-.21-.024-.41-.07-.605-.088-.39-.264-.757-.515-1.1-.125-.17-.268-.334-.428-.494-.115-.112-.24-.222-.37-.33-.052-.04-.107-.078-.16-.118-.083-.064-.166-.128-.256-.19-.073-.05-.15-.096-.226-.144-.075-.048-.152-.096-.23-.143-.092-.053-.186-.104-.28-.155l-.21-.11c-.11-.055-.223-.108-.337-.16-.06-.03-.12-.057-.182-.084-.128-.056-.26-.11-.392-.164-.05-.02-.1-.04-.15-.058-.148-.056-.298-.112-.452-.165l-.105-.036c-.13-.043-.265-.086-.4-.127l6.24-2.352v-2.082l-9.81 3.697c.078.01.155.023.235.034-.112-.015-.22-.032-.332-.045-.502-.06-1.01-.106-1.52-.135h-.004c-.51-.03-1.023-.046-1.533-.046-4.873 0-10.015 1.37-11.224 3.936-.172.366-.264.757-.264 1.172V29.8c-.003 3.318 5.916 5.11 11.485 5.11zm9.54-5.11c0 1.288-3.714 3.16-9.538 3.16v-4.313c3.602 0 7.34-.754 9.538-2.182V29.8zM29.89 18.78l-.16-.03.16.03zm-13.723 4.51c.025-.074.064-.15.11-.228.02-.027.042-.054.06-.08.036-.052.073-.103.118-.155.028-.034.064-.067.097-.1.044-.046.09-.09.14-.136.044-.037.09-.074.14-.112.05-.04.1-.08.156-.12.058-.042.12-.083.184-.125l.164-.103c.075-.045.153-.09.236-.136l.156-.082c.098-.05.196-.1.302-.15l.114-.05c1.055-.474 2.492-.883 4.24-1.12h.018c.25-.035.507-.065.77-.09l.03-.003c.266-.027.535-.05.812-.066h.003c.53-.035 1.077-.056 1.65-.056.6 0 1.178.02 1.734.058.93.062 1.786.174 2.57.32.053.01.108.02.162.032.62.12 1.19.264 1.708.423l.156.05c.25.08.492.164.716.25l.01.005c.217.084.416.173.607.262l.137.066c.186.09.36.184.518.278l.015.01c.152.092.286.185.41.278.033.025.063.05.096.074.12.096.23.192.32.287.25.266.38.528.38.77 0 1.29-3.716 3.16-9.54 3.16-.43 0-.845-.013-1.25-.032-.123-.005-.24-.014-.36-.02-.292-.02-.578-.042-.855-.068-.115-.012-.228-.022-.34-.035-.327-.037-.645-.08-.95-.128l-.126-.018c-.36-.06-.702-.127-1.032-.2-.048-.01-.093-.022-.14-.033-.283-.065-.553-.135-.81-.208l-.153-.045c-1.38-.41-2.396-.927-2.972-1.444-.023-.02-.044-.04-.064-.06-.05-.048-.102-.097-.146-.146-.058-.064-.11-.13-.153-.193-.02-.027-.033-.056-.05-.083-.03-.052-.056-.104-.076-.156-.01-.023-.02-.047-.028-.07-.02-.075-.038-.148-.038-.218 0-.084.015-.167.043-.25z"/></svg>