<svg xmlns="http://www.w3.org/2000/svg" viewBox="0 0 50 50"><path d="M2.045 22.154h45.91V7.326H2.045v14.828zm2.42-12.406h41.068v9.985H4.465V9.748zM2.045 39.312H16.13V23.645H2.045v15.667zm2.42-13.248h9.244V36.89H4.464V26.064zM18 30.828h14.087v-7.183H18v7.183zm2.42-4.764h9.245v2.344H20.42v-2.344zM33.87 30.828h14.085v-7.183H33.87v7.183zm2.423-4.764h9.24v2.344h-9.24v-2.344zM18 39.193h14.087V32.29H18v6.903zm2.42-4.482h9.245v2.063H20.42V34.71zM33.87 39.193h14.085V32.29H33.87v6.903zm2.423-4.482h9.24v2.063h-9.24V34.71z"/><path d="M6.15 18.12h6.76v-6.757H6.15v6.757zm2.423-4.337h1.916V15.7H8.572v-1.917z"/></svg>