<svg xmlns="http://www.w3.org/2000/svg" version="1" width="98.867" height="100" viewBox="0 0 98.867 100" id="Layer_1"><path d="M4.66 65.626h24.193V41.432H4.66z" id="rect2994-1"/><path d="M36.484 33.8h24.194V9.607H36.484z" id="rect2994-4"/><path d="M36.39 65.78h24.194V41.584H36.39z" id="rect2994-1-0"/><path d="M68.204 33.496H92.4V9.3H68.203z" id="rect2994-48"/><path d="M68.11 65.474h24.195V41.28H68.11z" id="rect2994-1-8"/><path d="M36.432 33.72h24.195V9.526H36.432m22.165 22H38.372v-19.79h20.225z" id="rect2994-5"/><path d="M68.237 33.52h24.195V9.327H68.237m22.165 22H70.177v-19.79h20.225z" id="rect2994-17"/><path d="M68.093 65.394h24.195V41.2H68.093m22.165 22H70.033V43.41h20.225z" id="rect2994-11"/><path d="M36.314 65.7h24.194V41.503H36.314m22.164 22H38.253v-19.79h20.225z" id="rect2994-52"/><path d="M4.64 65.593h24.195V41.398H4.64m22.164 22H6.58V43.61h20.224z" id="rect2994-7"/><path d="M4.585 97.504H28.78V73.31H4.585m22.164 22H6.524V75.52H26.75z" id="rect2994-6"/><path d="M36.326 97.703H60.52V73.51H36.327m22.165 22H38.267V75.72H58.49z" id="rect2994-14"/><path d="M68.08 97.373h24.195V73.178H68.08m22.165 22H70.02V75.39h20.225z" id="rect2994-2"/><path d="M4.636 33.8H28.83V9.603H4.637z" id="rect2994-4-3"/></svg>