<svg xmlns="http://www.w3.org/2000/svg" viewBox="0 0 100 100"><path d="M30.61 60.223l46.637-29.93s10.606-8.572 15.546-2.76c4.94 5.81.682 9.42-9.298 16.998l-44.24 31.382s-8.28 6.175-14.31.58c-6.328-5.868.06-12.672 5.665-16.27z"/><path d="M95.698 33.925s.827 3.95-3.052 7.48C88.64 45.06 73.12 56.06 73.12 56.06l.714-2.665S95.48 39.52 95.698 33.925zM65.816 59.06l6.83-4.892s-3.535 17.24-3.5 18.477c0 0-1.416 8.28-2.578 10.68 0 0-3.924 8.934-5.012 9.224 0 0-.873-2.324 0-8.863.87-6.537 3.27-14.816 3.27-14.816s1.16-6.03-.364-7.265l-.638-1.234 1.992-1.31zM72.452 60.73s4.214 7.554 6.247 7.846h1.09s-1.09 3.123.362 4.793c1.453 1.67 4.213 1.235 4.213 1.235s-1.38 2.832 0 5.303c1.38 2.47 4.142 1.162 4.142 1.162s-1.233 2.688 0 4.867c1.235 2.18 5.013 1.38 5.304 1.233.29-.146.872-.218.872-.218s-.51 2.34 1.6.48c0 0 2.105-3.313-1.092-3.022 0 0-7.117 2.615-3.85-2.25 0 0 4.432-5.887-2.396-3.997 0 0-5.23 3.05-1.963-2.18 0 0 4.605-5.738-2.27-4.357 0 0-4.338 1.67-2.23-2.18 0 0 3.97-4.966-1.162-3.995 0 0-3.85 3.704-4.067-2.906 0 0 .292-.942 1.163-1.452.872-.508-.218-2.105-.437-2.47-.218-.362-2.42-2.856-2.42-2.856l-2.52 1.842-.582 2.76M89.96 24.264L77.102 9.227s-4.357-4.14-5.447-4.504c-1.09-.363-3.486-1.96-3.85 1.38-.365 3.342-.365 5.74-.365 5.74s.29 3.268 1.744 3.486c1.453.217 3.996-2.47 3.996-2.47s1.524-1.454 3.994 3.195L80.3 19.47s1.127 4.018-2.73 3.443l-.178-.03c-4.068-.726-3.488-3.56-3.488-3.56s-1.524-.726-1.088 2.108c.435 2.834 2.25 4.36 2.832 4.94l1.744 1.525s5.68-4.756 12.568-3.63zM70.796 32.405s.51.53-10.4-1.895c-9.862-2.19-19.106-4.067-19.106-4.067S24 22.883 20.513 17.29c0 0-.726-.8 3.196-1.743 3.922-.944 8.934-2.688 19.104 0S66.35 21.65 66.35 21.65l5.377 1.898s2.03 3.1 4.14 5.365l-5.07 3.492zM34.824 55.646l5.448-17.943s.726-6.03-.58-8.645c-1.31-2.615-4.94 4.358-5.304 5.085 0 0-3.196 8.136-6.392 19.177l.653 3.56s-1.31 1.09.798.945c0 0 .653.653.508 1.09l4.868-3.27zM21.167 69.447s-.22 1.6-1.67-.146c-1.454-1.74-9.154-11.91-9.735-12.276-.58-.36-6.174-9.296-6.538-11.693 0 0 .727-1.017 3.05-1.96l1.672-.8s.654-.726 1.96.8c1.31 1.525 3.198 2.542 3.198 2.542s-1.017 6.878 3.414 10.448c0 0 4.068 1.805 6.683 0 2.617-1.805.51-1.95.51-1.95l-.073-.798s.948-.568 2.542 1.017l.658-.044.43 2.295s-1.505 2.042.655 1.982l.29.996s-7.046 3.704-7.046 9.59z"/><path d="M63.082 61.115s.872.51.508 1.598l-26.224 17.87s-8.862 5.667-14.31-4.576c0 0 5.448 7.413 13.753 3.345L63.08 61.115z"/><path d="M28.358 81.564s-1.574.498-.993 2.047c.582 1.553 1.6 1.504 2.52.73.92-.773.414-1.502 0-2.275-.415-.777-1.527-.5-1.527-.5z"/><path d="M29.835 85.84c.97-.24 1.018-1.645 1.018-1.645 1.163.92 1.695 3.05 1.89 7.02.192 3.973-3.827 3.586-3.827 3.586s-3.292.437-3.922-5.473c-.63-5.907 1.646-6.054 1.646-6.054.378 3.07 2.227 2.81 3.195 2.568zm-3.1 5.86c1.406 3.438 3.875 1.502 3.875 1.502 2.325-.68.485-6.927.485-6.927-2.276 2.713-4.89-.482-4.89-.482s-.873 2.47.53 5.907z"/></svg>