<svg xmlns="http://www.w3.org/2000/svg" id="Layer_1" viewBox="0 0 48 48" height="100" width="100"><path d="M47 41.6H35.5c-.6 0-1-.4-1-1v-8.3c0-.6.4-1 1-1H47c.6 0 1 .4 1 1v8.3c0 .6-.4 1-1 1zm-10.5-2H46v-6.3h-9.5v6.3z"/><path d="M35.5 41.6H24c-.6 0-1-.4-1-1v-8.3c0-.6.4-1 1-1h11.5c.6 0 1 .4 1 1v8.3c0 .6-.4 1-1 1zm-10.5-2h9.5v-6.3H25v6.3z"/><path d="M24 41.6H12.5c-.6 0-1-.4-1-1v-8.3c0-.6.4-1 1-1H24c.6 0 1 .4 1 1v8.3c0 .6-.4 1-1 1zm-10.5-2H23v-6.3h-9.5v6.3zM41.3 33.3H29.8c-.6 0-1-.4-1-1V24c0-.6.4-1 1-1h11.5c.6 0 1 .4 1 1v8.3c0 .6-.4 1-1 1zm-10.5-2h9.5V25h-9.5v6.3z"/><path d="M29.8 33.3H18.3c-.6 0-1-.4-1-1V24c0-.6.4-1 1-1h11.5c.6 0 1 .4 1 1v8.3c0 .6-.4 1-1 1zm-10.5-2h9.5V25h-9.5v6.3z"/><path d="M35.5 25H24c-.6 0-1-.4-1-1v-8.3c0-.6.4-1 1-1h11.5c.6 0 1 .4 1 1V24c0 .6-.4 1-1 1zM25 23h9.5v-6.3H25V23z"/><path d="M29.8 16.7H18.3c-.6 0-1-.4-1-1V7.4c0-.6.4-1 1-1h11.5c.6 0 1 .4 1 1v8.3c0 .6-.4 1-1 1zm-10.5-2h9.5V8.4h-9.5v6.3z"/><path d="M24 25H12.5c-.6 0-1-.4-1-1v-8.3c0-.6.4-1 1-1H24c.6 0 1 .4 1 1V24c0 .6-.4 1-1 1zm-10.5-2H23v-6.3h-9.5V23z"/><path d="M18.3 33.3H6.8c-.6 0-1-.4-1-1V24c0-.6.4-1 1-1h11.5c.6 0 1 .4 1 1v8.3c0 .6-.4 1-1 1zm-10.5-2h9.5V25H7.8v6.3z"/><path d="M12.5 41.6H1c-.6 0-1-.4-1-1v-8.3c0-.6.4-1 1-1h11.5c.6 0 1 .4 1 1v8.3c0 .6-.4 1-1 1zM2 39.6h9.5v-6.3H2v6.3z"/></svg>