<svg xmlns="http://www.w3.org/2000/svg" viewBox="0 0 100 72.243"><path d="M48.785 24.695c-.09-.09-.19-.18-.297-.265-.04-.033-.085-.063-.127-.095-.067-.052-.134-.103-.206-.152-.058-.04-.12-.077-.18-.116-.062-.04-.122-.077-.186-.114-.072-.042-.15-.083-.225-.125-.055-.03-.11-.06-.168-.088-.087-.044-.178-.086-.27-.128-.047-.022-.097-.045-.146-.066-.104-.045-.21-.09-.316-.132l-.12-.046c-.12-.045-.24-.09-.363-.132-.027-.01-.055-.02-.083-.028-.137-.045-.275-.09-.417-.133-.876-.26-1.842-.45-2.843-.57-.404-.047-.812-.084-1.22-.107h-.002c-.41-.024-.82-.037-1.23-.037-3.908 0-8.03 1.1-9 3.158-.14.294-.214.607-.214.94v5.023c0 2.66 4.748 4.097 9.214 4.097 4.467 0 9.214-1.436 9.214-4.097v-5.022c0-.166-.018-.328-.054-.485-.072-.313-.213-.607-.413-.88-.1-.138-.215-.27-.345-.398zm-.75 6.785c0 1.033-2.98 2.534-7.65 2.534v-3.46c2.89 0 5.887-.603 7.65-1.75v2.676zm-7.65-2.487c-.346 0-.68-.01-1.005-.026-.098-.004-.192-.012-.29-.018-.232-.015-.46-.034-.685-.055l-.274-.028c-.26-.03-.514-.064-.76-.103l-.1-.014c-.29-.047-.564-.102-.83-.16l-.11-.026c-.227-.052-.444-.108-.65-.167l-.123-.036c-1.107-.327-1.92-.743-2.383-1.157-.017-.016-.034-.03-.05-.048-.042-.04-.083-.078-.118-.118-.046-.052-.09-.104-.124-.155-.015-.023-.026-.045-.04-.067-.023-.042-.044-.083-.06-.125-.01-.02-.017-.04-.022-.058-.017-.06-.03-.118-.03-.174 0-.064.012-.13.035-.198.02-.06.052-.122.09-.184.012-.02.03-.043.046-.065.03-.04.06-.08.094-.122.024-.027.052-.054.08-.08.035-.037.07-.073.112-.11.034-.03.072-.06.11-.09.04-.03.082-.063.127-.095.046-.033.096-.067.146-.1.04-.027.086-.055.13-.083.062-.037.124-.073.19-.11l.125-.065c.078-.04.156-.08.24-.12l.093-.04c.845-.38 1.998-.708 3.4-.897.005 0 .01 0 .014-.002.2-.027.407-.05.618-.07l.025-.004c.212-.02.428-.04.65-.053h.002c.425-.028.864-.045 1.324-.045.483 0 .947.016 1.392.046.745.05 1.43.14 2.06.258l.13.025c.497.097.955.212 1.37.34.042.012.084.025.126.04.2.063.395.13.575.2l.007.003c.173.067.334.14.487.21l.11.054c.15.073.292.147.418.223l.01.007c.123.073.23.147.33.222l.077.06c.096.077.185.154.257.23.2.214.305.424.305.618 0 1.032-2.98 2.533-7.65 2.533zM69.21 24.09v-5.022c0-.167-.02-.328-.055-.485-.07-.313-.213-.607-.413-.88-.1-.138-.215-.27-.344-.397-.092-.09-.19-.18-.297-.265-.04-.032-.084-.062-.126-.094-.068-.052-.135-.103-.207-.152-.058-.04-.12-.078-.18-.116-.062-.04-.122-.077-.187-.115-.072-.042-.148-.083-.225-.124l-.168-.09c-.087-.043-.178-.086-.27-.128l-.146-.066c-.103-.045-.207-.09-.314-.132l-.12-.046c-.12-.045-.24-.09-.363-.132l-.084-.028c-.138-.046-.276-.09-.42-.133-.875-.26-1.84-.452-2.842-.57-.403-.047-.812-.084-1.222-.108-.41-.024-.822-.037-1.23-.037-3.91 0-8.03 1.1-9 3.158-.14.293-.214.607-.214.94v5.022c0 2.66 4.747 4.096 9.213 4.096s9.215-1.436 9.215-4.097zm-1.562 0c0 1.032-2.98 2.534-7.65 2.534v-3.46c2.888 0 5.887-.603 7.65-1.748v2.673zm-8.944-2.53c-.233-.016-.463-.034-.686-.055l-.274-.028c-.26-.03-.516-.064-.762-.103l-.1-.015c-.29-.048-.563-.102-.828-.16-.037-.01-.074-.02-.11-.027-.228-.052-.444-.108-.65-.167-.042-.012-.083-.023-.123-.036-1.105-.328-1.92-.743-2.38-1.158-.02-.016-.035-.032-.052-.048-.042-.04-.083-.08-.117-.118-.046-.052-.09-.104-.123-.155-.015-.02-.025-.044-.04-.066-.022-.042-.044-.083-.06-.125-.01-.02-.017-.04-.02-.06-.02-.058-.03-.117-.03-.173 0-.064.01-.13.033-.2.02-.06.052-.12.09-.183.013-.02.03-.043.047-.064.028-.04.058-.082.094-.123.024-.027.053-.054.08-.08.035-.037.07-.073.112-.11.034-.03.072-.06.11-.09.04-.03.08-.063.126-.095.047-.034.096-.067.146-.1.042-.028.088-.055.133-.083.06-.038.122-.074.188-.11.04-.022.084-.043.126-.065.078-.04.156-.08.24-.12.03-.014.063-.027.094-.04.845-.38 1.997-.71 3.4-.898.005 0 .01 0 .014-.002.2-.027.406-.05.617-.072.01 0 .018 0 .024-.002.212-.02.428-.038.65-.052.427-.027.865-.045 1.325-.045.48 0 .945.016 1.39.046.745.05 1.432.14 2.06.256l.13.025c.498.098.955.213 1.37.34l.127.04c.2.064.395.13.574.2l.008.004c.173.068.333.14.486.21l.11.053c.15.073.29.147.417.223l.01.008c.122.073.23.147.33.222l.076.06c.096.076.186.153.258.23.2.212.307.423.307.617 0 1.034-2.98 2.535-7.65 2.535-.347 0-.68-.01-1.005-.026-.097-.004-.192-.01-.288-.017z"/><path d="M99.968 16.96l-.024-.063c-.018-.045-.038-.09-.063-.13-.013-.022-.026-.042-.042-.063-.03-.04-.062-.073-.1-.105-.017-.017-.032-.033-.052-.048l-.022-.02c-.05-.036-.105-.063-.162-.085H99.5v-.002h-.006l-10.67-4.086v-.68c0-.167-.02-.33-.055-.486-.073-.313-.214-.607-.414-.88-.1-.138-.216-.27-.345-.397-.09-.09-.19-.18-.296-.265-.04-.033-.085-.063-.127-.095-.068-.052-.135-.103-.207-.152-.058-.04-.12-.077-.18-.116-.062-.04-.12-.078-.186-.115-.072-.042-.148-.083-.226-.125-.055-.03-.11-.06-.168-.088-.087-.044-.177-.086-.27-.128l-.146-.066c-.104-.045-.208-.09-.315-.132l-.12-.046c-.12-.045-.24-.09-.364-.132-.027-.01-.056-.02-.084-.028-.137-.045-.275-.09-.417-.133-.876-.26-1.843-.45-2.844-.57-.402-.047-.81-.084-1.22-.107-.41-.024-.822-.037-1.23-.037h-.002c-.93 0-1.87.064-2.778.187l-7.81-2.988v-.684c0-.167-.018-.328-.053-.485-.072-.313-.213-.607-.414-.88-.1-.138-.215-.27-.344-.397-.093-.09-.192-.18-.298-.265-.04-.032-.085-.062-.127-.094-.068-.052-.135-.103-.207-.152-.058-.04-.12-.078-.18-.116-.062-.04-.12-.077-.187-.115-.07-.042-.147-.083-.224-.124l-.168-.09c-.087-.043-.178-.085-.27-.127-.048-.023-.097-.045-.146-.066-.104-.045-.208-.09-.315-.132l-.12-.046c-.12-.046-.24-.09-.363-.133L65.52.85c-.137-.047-.275-.09-.417-.134-.876-.26-1.843-.452-2.844-.57-.404-.047-.813-.084-1.222-.108h-.002C60.63.013 60.218 0 59.81 0h-.002c-3.907 0-8.03 1.1-9 3.158-.14.293-.213.607-.213.94v.482l-7.87 2.965c-.026-.002-.05-.007-.077-.01-.403-.047-.81-.084-1.22-.107h-.002c-.41-.024-.82-.037-1.23-.037-3.908 0-8.03 1.1-9 3.158-.14.294-.214.607-.214.94v.482l-7.87 2.966.074.01c-.05-.006-.1-.015-.15-.02-.404-.048-.812-.085-1.222-.11-.41-.023-.822-.036-1.23-.036h-.002c-3.908 0-8.03 1.1-9 3.158-.138.293-.213.607-.213.94v.482L.507 23.453H.505c-.06.023-.114.052-.167.088l-.02.02c-.02.014-.037.03-.055.047-.036.032-.07.066-.098.104-.016.022-.03.042-.043.064-.026.042-.046.084-.064.13-.008.022-.018.043-.025.066-.02.066-.03.134-.032.205v32.128c0 .324.2.614.502.73L40.104 72.19c.007.004.015.003.022.005.083.03.17.048.257.048s.172-.018.254-.047c.007-.002.014 0 .02-.003l58.838-22.17c.304-.115.505-.407.505-.73v-32.12c0-.073-.013-.143-.032-.212zm-22.99-7.644c.005 0 .01 0 .014-.002.2-.027.406-.05.617-.072.008 0 .017 0 .024-.003.212-.022.428-.04.65-.054h.002c.425-.027.863-.044 1.323-.044.48 0 .945.016 1.39.046.744.05 1.43.14 2.06.257l.13.024c.497.096.955.21 1.37.34l.126.038c.2.064.395.13.574.2l.008.004c.174.068.334.14.486.21l.11.053c.15.073.29.147.417.223l.012.007c.122.073.23.147.328.222l.078.06c.096.077.185.154.257.23.2.214.306.424.306.618 0 1.034-2.98 2.535-7.65 2.535-.346 0-.678-.01-1.004-.026-.098-.004-.192-.01-.288-.018-.234-.014-.463-.033-.686-.054l-.274-.028c-.262-.03-.516-.064-.763-.103l-.1-.013c-.288-.047-.562-.102-.828-.16l-.11-.026c-.228-.05-.444-.107-.65-.166l-.122-.036c-1.107-.328-1.92-.744-2.383-1.158l-.05-.048c-.043-.04-.084-.08-.118-.118-.046-.052-.09-.104-.124-.155-.015-.024-.025-.046-.038-.068-.023-.042-.046-.083-.062-.125-.01-.02-.017-.04-.02-.058-.02-.06-.03-.12-.03-.175 0-.064.01-.13.033-.198.02-.06.052-.123.09-.184.013-.02.03-.043.047-.064.028-.042.06-.083.094-.125.023-.027.052-.054.08-.08.034-.037.07-.073.11-.11l.11-.09c.042-.03.082-.063.128-.095.046-.033.096-.067.146-.1l.132-.083.188-.11c.04-.02.084-.042.126-.065.077-.04.156-.08.24-.12.03-.013.063-.026.093-.04.846-.38 1.998-.706 3.4-.896zm10.283 4.71v2.673c0 1.032-2.978 2.533-7.65 2.533v-3.46c2.89 0 5.887-.603 7.65-1.748zM52.19 3.898c.022-.06.053-.123.09-.185l.048-.064c.028-.04.06-.08.094-.122.023-.028.052-.054.078-.08.036-.037.072-.073.113-.11.034-.03.072-.06.11-.09.04-.03.08-.063.127-.095.046-.034.096-.067.146-.1l.133-.083c.06-.037.122-.073.187-.11l.126-.064c.077-.04.156-.08.24-.12.03-.014.062-.027.093-.04.845-.38 1.998-.71 3.4-.9h.014c.2-.028.406-.052.617-.072.01 0 .018-.002.025-.003.212-.02.428-.038.65-.052.427-.027.865-.044 1.325-.044.482 0 .946.016 1.39.046.745.05 1.432.14 2.06.257l.13.025c.498.097.956.212 1.37.34.043.012.085.025.127.04.2.063.395.13.574.2l.008.003c.173.068.334.14.486.21l.11.053c.15.073.29.147.417.223.002.003.006.005.01.008.122.073.23.147.328.222l.078.06c.096.076.185.153.257.23.2.212.306.423.306.617 0 1.034-2.982 2.535-7.652 2.535-.346 0-.678-.01-1.004-.026-.1-.004-.193-.01-.29-.017-.232-.016-.46-.034-.685-.055l-.275-.028c-.26-.03-.515-.064-.762-.103l-.1-.015c-.29-.048-.563-.102-.828-.16-.037-.01-.074-.02-.11-.027-.228-.052-.444-.108-.65-.167L54.982 6c-1.107-.327-1.92-.743-2.383-1.157l-.05-.048c-.043-.04-.084-.08-.118-.118-.046-.052-.09-.104-.124-.155-.015-.022-.025-.045-.038-.067-.024-.042-.046-.083-.062-.125-.01-.02-.017-.04-.02-.058-.02-.06-.03-.118-.03-.174 0-.065.01-.13.033-.2zm15.27 2.545V9.12c0 1.033-2.98 2.534-7.65 2.534v-3.46c2.888 0 5.886-.604 7.65-1.75zM32.58 11.29c.02-.06.05-.122.088-.184.013-.02.03-.043.047-.064.028-.04.058-.082.094-.124.022-.027.05-.054.078-.08.035-.037.072-.073.113-.11l.11-.09c.042-.032.083-.064.128-.096.046-.033.096-.066.146-.1l.132-.082c.06-.037.123-.073.188-.11.04-.02.084-.042.126-.065.078-.04.156-.08.24-.12l.094-.04c.845-.38 1.997-.708 3.4-.897.004 0 .01 0 .013-.002.202-.027.407-.05.618-.072.008 0 .017 0 .024-.002.21-.02.427-.04.65-.053.426-.03.865-.046 1.325-.046.482 0 .946.016 1.39.046.745.05 1.43.14 2.06.257l.13.024c.497.098.955.213 1.37.34l.125.04c.202.064.395.13.575.2l.008.004c.173.068.333.14.486.21l.11.053c.148.073.29.147.417.223l.01.007c.123.073.23.147.33.223l.077.06c.096.076.185.153.257.23.2.213.306.423.306.617 0 1.034-2.98 2.535-7.65 2.535-.347 0-.68-.01-1.005-.026-.097-.004-.19-.01-.287-.017-.234-.016-.463-.034-.686-.056l-.274-.028c-.262-.03-.516-.064-.762-.103l-.1-.014c-.287-.048-.56-.102-.826-.16-.038-.01-.074-.02-.112-.027-.226-.052-.443-.108-.65-.167l-.122-.036c-1.107-.328-1.92-.744-2.382-1.158-.018-.016-.035-.032-.05-.048-.043-.04-.084-.08-.118-.118-.046-.052-.09-.104-.124-.155-.015-.02-.026-.044-.04-.066-.022-.042-.044-.083-.06-.125-.01-.02-.017-.04-.022-.06-.017-.06-.03-.118-.03-.174 0-.063.012-.13.035-.196zm15.267 2.545v2.674c0 1.032-2.98 2.533-7.65 2.533v-3.46c2.888 0 5.886-.603 7.65-1.748zm-34.88 4.845c.02-.06.05-.122.088-.184.013-.02.032-.043.047-.064.028-.04.058-.082.094-.123.023-.028.052-.055.078-.082.035-.036.072-.072.113-.108.034-.03.072-.06.11-.09.04-.032.082-.064.126-.096.046-.034.096-.067.147-.1.042-.028.086-.055.132-.083.06-.036.123-.072.188-.108.04-.022.083-.043.125-.065.078-.04.157-.08.242-.12l.092-.04c.844-.382 1.997-.71 3.4-.898.004-.002.01-.003.013-.003.2-.027.407-.05.618-.072.01 0 .018 0 .026-.002.212-.02.428-.04.65-.053h.002c.425-.027.864-.044 1.324-.044.482 0 .946.016 1.39.046.746.05 1.432.14 2.06.257.045.007.088.015.13.024.5.097.956.212 1.37.34.043.012.085.025.127.04.2.063.394.13.574.2l.007.003c.174.068.335.14.487.21l.11.053c.15.073.292.147.418.223l.01.008c.123.074.23.148.33.223.027.02.053.04.077.06.096.076.185.153.257.23.2.212.305.423.305.617 0 1.034-2.98 2.535-7.65 2.535-.347 0-.68-.01-1.005-.026-.098-.005-.193-.012-.29-.018-.232-.015-.462-.033-.685-.054l-.274-.028c-.26-.03-.514-.064-.76-.103l-.1-.015c-.29-.047-.564-.1-.83-.16l-.11-.026c-.227-.052-.444-.108-.65-.167l-.123-.037c-1.107-.328-1.92-.743-2.382-1.158-.018-.016-.035-.032-.05-.048-.043-.04-.084-.08-.118-.118-.046-.053-.09-.105-.124-.156-.016-.022-.026-.045-.04-.067-.023-.042-.044-.083-.06-.125-.01-.02-.017-.04-.022-.058-.016-.06-.03-.118-.03-.174.002-.066.013-.132.036-.2zm15.267 2.546V23.9c0 1.033-2.98 2.534-7.65 2.534v-3.46c2.89 0 5.887-.603 7.65-1.748zm12.15 17.283l-24.34-9.318-13.063-5 8.39-3.16v2.87c0 2.66 4.747 4.096 9.213 4.096 4.467 0 9.214-1.436 9.214-4.097v-5.02c0-.168-.02-.33-.054-.486-.072-.313-.213-.607-.414-.88-.1-.138-.216-.27-.345-.397-.09-.09-.19-.18-.297-.265-.04-.033-.085-.063-.127-.095-.067-.052-.134-.103-.206-.152-.058-.04-.12-.078-.18-.116-.06-.04-.122-.078-.186-.116-.072-.042-.148-.083-.225-.124-.055-.03-.11-.06-.168-.088-.087-.044-.178-.086-.27-.128-.047-.023-.097-.045-.146-.066-.105-.045-.21-.09-.316-.132l-.12-.046c-.12-.045-.24-.09-.363-.132l-.083-.028c-.105-.035-.213-.07-.32-.102l5.005-1.887v2.87c0 2.662 4.747 4.098 9.213 4.098 4.467 0 9.214-1.436 9.214-4.097v-5.02c0-.167-.02-.33-.055-.485-.072-.313-.213-.607-.413-.88-.1-.14-.215-.27-.344-.398-.093-.093-.193-.18-.298-.267-.04-.033-.085-.063-.127-.095-.068-.052-.134-.103-.207-.152-.058-.04-.12-.077-.18-.116-.06-.04-.122-.077-.186-.114-.072-.042-.148-.083-.225-.125l-.167-.087c-.087-.043-.177-.085-.27-.127l-.146-.066c-.103-.045-.208-.09-.315-.132l-.12-.046c-.12-.046-.24-.09-.364-.133-.028-.01-.056-.02-.084-.028-.106-.036-.214-.07-.322-.103l5.007-1.886v2.87c0 2.66 4.748 4.097 9.213 4.097 4.467 0 9.214-1.436 9.214-4.097V6.45l5.027 1.925c-1.66.532-2.953 1.325-3.44 2.362-.14.294-.214.607-.214.94V16.7c0 2.66 4.747 4.096 9.213 4.096 4.466 0 9.213-1.436 9.213-4.097v-2.67l8.198 3.138-56.635 21.34zM98.44 48.75L41.164 70.334v-30.45l20.307-7.65 36.97-13.93V48.75z"/></svg>