<svg xmlns="http://www.w3.org/2000/svg" xmlns:xlink="http://www.w3.org/1999/xlink" version="1.1" id="Layer_1" x="0px" y="0px" viewBox="0 0 50 50" enable-background="new 0 0 50 50" xml:space="preserve">
<g id="layout">
	<path d="M2.045,22.154h45.91V7.326H2.045V22.154z M4.465,9.748h41.068v9.985H4.465V9.748z"/>
	<path d="M2.045,39.312h14.085V23.645H2.045V39.312z M4.465,26.064h9.244v10.826H4.465V26.064z"/>
	<path d="M18,30.828h14.087v-7.183H18V30.828z M20.421,26.064h9.244v2.344h-9.244V26.064z"/>
	<path d="M33.871,30.828h14.084v-7.183H33.871V30.828z M36.293,26.064h9.24v2.344h-9.24V26.064z"/>
	<path d="M18,39.193h14.087v-6.902H18V39.193z M20.421,34.711h9.244v2.062h-9.244V34.711z"/>
	<path d="M33.871,39.193h14.084v-6.902H33.871V39.193z M36.293,34.711h9.24v2.062h-9.24V34.711z"/>
	<path d="M6.151,18.12h6.759v-6.757H6.151V18.12z M8.573,13.783h1.916v1.917H8.573V13.783z"/>
</g>
</svg>