<svg xmlns="http://www.w3.org/2000/svg" xmlns:xlink="http://www.w3.org/1999/xlink" version="1.1" id="Layer_1" x="0px" y="0px" width="100px" height="67.278px" viewBox="0 0 100 67.278" enable-background="new 0 0 100 67.278" xml:space="preserve">
<g>
	<path d="M99.961,11.699c-0.005-0.021-0.016-0.04-0.022-0.06c-0.022-0.064-0.051-0.125-0.085-0.183   c-0.015-0.024-0.03-0.044-0.046-0.066c-0.038-0.052-0.081-0.1-0.129-0.143c-0.02-0.018-0.038-0.036-0.059-0.052   c-0.014-0.011-0.024-0.025-0.039-0.036c-0.052-0.036-0.107-0.061-0.164-0.086c-0.009-0.004-0.015-0.011-0.023-0.014l-0.014-0.006   c-0.005-0.001-0.01-0.003-0.014-0.005L86.061,5.623V5.109c0-0.207-0.023-0.409-0.068-0.604c-0.089-0.391-0.265-0.757-0.516-1.099   c-0.125-0.171-0.269-0.336-0.428-0.495c-0.115-0.113-0.239-0.223-0.37-0.33c-0.052-0.041-0.106-0.079-0.159-0.119   c-0.084-0.064-0.167-0.128-0.257-0.189c-0.073-0.05-0.149-0.097-0.226-0.144c-0.075-0.048-0.151-0.096-0.231-0.143   c-0.091-0.053-0.185-0.104-0.28-0.155c-0.069-0.037-0.138-0.074-0.209-0.11c-0.11-0.055-0.223-0.108-0.337-0.16   c-0.061-0.028-0.121-0.056-0.183-0.083c-0.129-0.057-0.26-0.111-0.393-0.165c-0.05-0.02-0.1-0.038-0.149-0.058   c-0.148-0.056-0.299-0.112-0.453-0.165c-0.035-0.012-0.07-0.023-0.105-0.035c-0.171-0.057-0.343-0.113-0.521-0.166   c-1.091-0.325-2.296-0.562-3.545-0.71c-0.502-0.059-1.011-0.104-1.521-0.134c-0.002,0-0.002,0-0.003,0   C75.596,0.015,75.083,0,74.573,0h-0.002c-4.872,0-10.014,1.371-11.223,3.937c-0.172,0.366-0.265,0.757-0.265,1.172v0.416   l-9.911,3.871c-0.501-0.059-1.009-0.105-1.519-0.134c-0.001,0-0.001,0-0.003,0c-0.51-0.03-1.022-0.046-1.532-0.046h-0.001   c-4.872,0-10.014,1.372-11.223,3.937c-0.172,0.366-0.264,0.757-0.264,1.172v0.602v2.081v3.579c0,3.318,5.918,5.108,11.487,5.108   c5.57,0,11.488-1.791,11.488-5.108v-6.261c0-0.208-0.022-0.409-0.068-0.604c-0.088-0.391-0.264-0.757-0.515-1.099   c-0.125-0.171-0.269-0.335-0.429-0.495c-0.115-0.113-0.238-0.223-0.37-0.33c-0.051-0.041-0.105-0.079-0.158-0.119   c-0.085-0.064-0.168-0.128-0.258-0.189c-0.072-0.05-0.148-0.097-0.226-0.145c-0.075-0.048-0.151-0.096-0.23-0.143   c-0.091-0.053-0.186-0.104-0.28-0.155c-0.07-0.037-0.139-0.074-0.21-0.11c-0.109-0.055-0.223-0.108-0.336-0.161   c-0.061-0.028-0.121-0.056-0.183-0.083c-0.129-0.056-0.261-0.111-0.394-0.164c-0.05-0.02-0.1-0.039-0.148-0.058   c-0.149-0.057-0.3-0.112-0.454-0.165c-0.034-0.012-0.069-0.023-0.104-0.035c-0.172-0.057-0.344-0.113-0.521-0.166   c-0.003-0.001-0.006-0.001-0.009-0.002l6.371-2.488v0.176v3.579c0,3.318,5.919,5.108,11.487,5.108   c5.57,0,11.489-1.791,11.489-5.108V7.726l10.298,4.199L25.667,38.564L3.718,30.162l10.458-3.941v-2.082l-13.54,5.103   c-0.075,0.028-0.147,0.064-0.214,0.111c-0.01,0.006-0.017,0.016-0.026,0.023c-0.025,0.019-0.046,0.04-0.07,0.062   c-0.043,0.039-0.083,0.079-0.117,0.125c-0.022,0.027-0.042,0.056-0.06,0.086c-0.029,0.047-0.051,0.095-0.072,0.146   c-0.013,0.032-0.027,0.063-0.038,0.098c-0.019,0.068-0.029,0.14-0.033,0.212C0.007,30.121,0,30.135,0,30.152   c0,0.003,0.001,0.006,0.001,0.009v26.692c0,0.403,0.249,0.766,0.625,0.909l24.69,9.451c0.009,0.003,0.018,0.002,0.027,0.004   c0.104,0.037,0.211,0.061,0.321,0.061c0.109,0,0.215-0.022,0.317-0.059c0.009-0.002,0.018-0.001,0.026-0.004L99.37,39.571   c0.379-0.144,0.63-0.506,0.63-0.911V11.96C100,11.871,99.984,11.784,99.961,11.699z M59.658,20.585c0,1.289-3.714,3.16-9.538,3.16   v-4.313c3.602,0,7.34-0.753,9.538-2.181V20.585z M57.164,12.296c0.004,0.001,0.007,0.002,0.01,0.004   c0.217,0.084,0.417,0.173,0.607,0.262c0.046,0.022,0.093,0.044,0.139,0.066c0.185,0.091,0.36,0.184,0.518,0.278   c0.005,0.003,0.01,0.006,0.015,0.009c0.151,0.091,0.286,0.184,0.409,0.277c0.033,0.025,0.064,0.049,0.097,0.074   c0.119,0.096,0.229,0.192,0.319,0.287c0.251,0.267,0.381,0.529,0.381,0.771c0,1.289-3.715,3.161-9.539,3.161   c-0.431,0-0.846-0.014-1.252-0.033c-0.123-0.005-0.24-0.014-0.36-0.021c-0.291-0.018-0.577-0.041-0.854-0.067   c-0.116-0.012-0.229-0.022-0.342-0.035c-0.326-0.037-0.644-0.08-0.95-0.128c-0.042-0.007-0.084-0.012-0.125-0.018   c-0.36-0.059-0.702-0.126-1.032-0.2c-0.048-0.01-0.092-0.022-0.139-0.033c-0.283-0.065-0.553-0.135-0.811-0.208   c-0.051-0.015-0.102-0.029-0.152-0.044c-1.381-0.409-2.395-0.927-2.971-1.444c-0.023-0.021-0.044-0.04-0.064-0.06   c-0.051-0.049-0.102-0.098-0.146-0.147c-0.058-0.064-0.11-0.129-0.153-0.193c-0.02-0.028-0.033-0.057-0.049-0.084   c-0.03-0.052-0.057-0.104-0.077-0.156c-0.009-0.024-0.019-0.048-0.027-0.072c-0.021-0.074-0.038-0.147-0.038-0.217   c0-0.081,0.015-0.163,0.043-0.248c0.025-0.075,0.064-0.152,0.111-0.229c0.018-0.027,0.041-0.054,0.059-0.081   c0.036-0.051,0.072-0.102,0.118-0.154c0.028-0.034,0.064-0.067,0.097-0.101c0.044-0.045,0.09-0.09,0.141-0.135   c0.043-0.038,0.09-0.075,0.138-0.113c0.05-0.04,0.102-0.08,0.157-0.12c0.058-0.042,0.119-0.083,0.184-0.125   c0.052-0.035,0.107-0.069,0.164-0.103c0.075-0.045,0.153-0.091,0.236-0.136c0.05-0.027,0.104-0.054,0.156-0.082   c0.098-0.05,0.196-0.1,0.302-0.149c0.037-0.018,0.077-0.034,0.114-0.051c1.055-0.474,2.492-0.883,4.24-1.119   c0.005-0.001,0.012-0.002,0.017-0.002c0.251-0.034,0.507-0.064,0.771-0.089c0.011-0.001,0.02-0.002,0.031-0.003   c0.264-0.026,0.534-0.048,0.811-0.065c0.001,0,0.001,0,0.002,0c0.53-0.034,1.078-0.056,1.649-0.056c0.601,0,1.18,0.02,1.735,0.058   c0.928,0.062,1.784,0.174,2.567,0.32c0.054,0.01,0.109,0.021,0.163,0.031c0.62,0.121,1.189,0.264,1.708,0.423   c0.052,0.016,0.104,0.033,0.155,0.049C56.698,12.125,56.94,12.208,57.164,12.296z M84.112,11.371c0,1.288-3.715,3.16-9.538,3.16   v-4.313c3.602,0,7.34-0.753,9.538-2.181V11.371z M74.573,8.27c-0.431,0-0.846-0.013-1.252-0.033   c-0.122-0.005-0.24-0.014-0.359-0.021c-0.292-0.018-0.577-0.041-0.855-0.068c-0.115-0.011-0.229-0.022-0.342-0.035   c-0.326-0.037-0.645-0.08-0.95-0.128c-0.042-0.006-0.085-0.011-0.125-0.018c-0.359-0.059-0.701-0.126-1.031-0.199   c-0.049-0.01-0.093-0.022-0.14-0.033c-0.283-0.065-0.553-0.135-0.811-0.208c-0.051-0.015-0.103-0.03-0.151-0.044   c-1.381-0.409-2.396-0.927-2.972-1.444c-0.022-0.02-0.044-0.04-0.064-0.06C65.47,5.93,65.419,5.88,65.375,5.832   c-0.058-0.064-0.11-0.129-0.153-0.193c-0.021-0.028-0.033-0.056-0.05-0.083c-0.029-0.053-0.056-0.104-0.076-0.156   c-0.01-0.024-0.019-0.048-0.027-0.073c-0.021-0.074-0.037-0.147-0.037-0.217c0-0.081,0.015-0.163,0.043-0.248   c0.025-0.075,0.064-0.152,0.111-0.229c0.018-0.027,0.04-0.054,0.059-0.081C65.28,4.5,65.317,4.45,65.362,4.398   c0.028-0.034,0.064-0.067,0.097-0.101c0.045-0.045,0.09-0.09,0.142-0.135c0.043-0.038,0.09-0.075,0.138-0.112   c0.05-0.041,0.103-0.08,0.157-0.12c0.058-0.042,0.119-0.083,0.184-0.125c0.053-0.034,0.107-0.068,0.164-0.103   c0.075-0.046,0.152-0.091,0.236-0.136c0.049-0.027,0.103-0.054,0.155-0.082c0.098-0.05,0.196-0.1,0.302-0.149   c0.036-0.017,0.076-0.034,0.114-0.051c1.055-0.475,2.491-0.883,4.24-1.119c0.005-0.001,0.012-0.002,0.018-0.003   c0.251-0.033,0.507-0.063,0.77-0.089c0.011-0.001,0.021-0.002,0.031-0.003c0.265-0.026,0.534-0.048,0.811-0.066   c0.001,0,0.001,0,0.003,0C73.452,1.97,74,1.948,74.571,1.948c0.602,0,1.18,0.02,1.735,0.058c0.929,0.062,1.784,0.175,2.568,0.321   c0.054,0.01,0.108,0.02,0.162,0.031c0.62,0.121,1.19,0.265,1.708,0.423c0.053,0.016,0.104,0.033,0.156,0.049   c0.251,0.081,0.492,0.164,0.716,0.25c0.005,0.001,0.007,0.003,0.01,0.004c0.218,0.084,0.417,0.173,0.607,0.262   c0.046,0.022,0.093,0.044,0.139,0.066c0.186,0.091,0.361,0.184,0.518,0.278c0.006,0.003,0.01,0.006,0.015,0.009   c0.152,0.091,0.286,0.184,0.41,0.277c0.033,0.024,0.064,0.049,0.096,0.074c0.12,0.096,0.229,0.192,0.32,0.287   c0.25,0.266,0.381,0.529,0.381,0.77C84.112,6.398,80.396,8.27,74.573,8.27z M26.638,64.896V40.279l71.415-26.911v24.618   L26.638,64.896z"/>
	<path d="M25.665,34.909c5.57,0,11.489-1.791,11.489-5.108v-6.262c0-0.208-0.023-0.409-0.068-0.604   c-0.089-0.391-0.265-0.757-0.516-1.099c-0.125-0.171-0.268-0.335-0.428-0.495c-0.115-0.113-0.239-0.223-0.371-0.33   c-0.051-0.041-0.106-0.079-0.158-0.119c-0.084-0.064-0.167-0.128-0.257-0.189c-0.073-0.05-0.149-0.097-0.226-0.145   c-0.075-0.048-0.152-0.096-0.231-0.143c-0.091-0.053-0.185-0.104-0.28-0.155c-0.07-0.037-0.138-0.074-0.209-0.11   c-0.11-0.055-0.223-0.108-0.337-0.161c-0.06-0.028-0.121-0.056-0.182-0.083c-0.129-0.056-0.26-0.111-0.393-0.164   c-0.05-0.02-0.1-0.039-0.149-0.058c-0.149-0.056-0.299-0.112-0.453-0.165c-0.035-0.012-0.07-0.022-0.105-0.035   c-0.132-0.043-0.266-0.086-0.402-0.127l6.242-2.352v-2.082l-9.812,3.697c0.079,0.009,0.156,0.023,0.236,0.034   c-0.112-0.015-0.22-0.032-0.332-0.045c-0.502-0.059-1.011-0.105-1.521-0.134c-0.001,0-0.001,0-0.003,0   c-0.51-0.03-1.022-0.046-1.532-0.046h-0.001c-4.872,0-10.014,1.372-11.223,3.937c-0.172,0.366-0.264,0.757-0.264,1.172v0.602v2.081   V29.8C14.177,33.118,20.096,34.909,25.665,34.909z M35.205,29.8c0,1.288-3.714,3.16-9.538,3.16v-4.313   c3.602-0.001,7.34-0.754,9.538-2.182V29.8z M29.889,18.78c-0.054-0.01-0.106-0.021-0.16-0.029   C29.783,18.759,29.835,18.77,29.889,18.78z M16.167,23.291c0.025-0.075,0.064-0.152,0.111-0.229   c0.018-0.027,0.041-0.054,0.059-0.081c0.036-0.051,0.073-0.102,0.118-0.154c0.028-0.034,0.064-0.067,0.097-0.101   c0.044-0.045,0.09-0.09,0.141-0.135c0.043-0.038,0.09-0.075,0.138-0.113c0.05-0.04,0.102-0.08,0.157-0.12   c0.058-0.042,0.119-0.083,0.184-0.125c0.053-0.034,0.107-0.068,0.164-0.103c0.075-0.045,0.153-0.091,0.236-0.136   c0.05-0.027,0.104-0.054,0.156-0.082c0.098-0.05,0.196-0.1,0.302-0.149c0.037-0.018,0.077-0.034,0.114-0.051   c1.055-0.474,2.492-0.883,4.24-1.119c0.005-0.001,0.012-0.002,0.018-0.002c0.251-0.034,0.507-0.064,0.77-0.089   c0.011-0.001,0.02-0.002,0.031-0.003c0.265-0.026,0.534-0.048,0.811-0.065c0.001,0,0.001,0,0.003,0   c0.53-0.035,1.077-0.056,1.649-0.056c0.601,0,1.179,0.021,1.735,0.058c0.929,0.062,1.785,0.174,2.568,0.321   c0.054,0.01,0.109,0.02,0.163,0.031c0.62,0.121,1.19,0.264,1.708,0.423c0.052,0.016,0.104,0.033,0.156,0.049   c0.251,0.081,0.492,0.164,0.716,0.251c0.004,0.001,0.007,0.002,0.009,0.004c0.218,0.084,0.417,0.173,0.608,0.262   c0.046,0.022,0.093,0.044,0.138,0.066c0.186,0.091,0.361,0.184,0.518,0.278c0.005,0.003,0.009,0.006,0.015,0.01   c0.152,0.091,0.286,0.184,0.409,0.277c0.034,0.025,0.064,0.049,0.097,0.074c0.12,0.096,0.229,0.192,0.319,0.287   c0.251,0.267,0.381,0.529,0.381,0.771c0,1.289-3.716,3.161-9.539,3.161c-0.431,0-0.846-0.014-1.252-0.033   c-0.122-0.005-0.24-0.014-0.36-0.021c-0.291-0.018-0.577-0.041-0.854-0.067c-0.116-0.012-0.229-0.022-0.342-0.035   c-0.326-0.037-0.644-0.08-0.95-0.128c-0.042-0.007-0.084-0.012-0.125-0.018c-0.36-0.059-0.702-0.126-1.032-0.199   c-0.048-0.01-0.093-0.022-0.14-0.033c-0.283-0.065-0.553-0.135-0.811-0.208c-0.051-0.015-0.102-0.029-0.152-0.044   c-1.38-0.409-2.395-0.927-2.971-1.444c-0.023-0.021-0.044-0.04-0.064-0.06c-0.051-0.049-0.102-0.098-0.146-0.147   c-0.058-0.064-0.11-0.129-0.153-0.193c-0.02-0.028-0.033-0.057-0.049-0.084c-0.03-0.052-0.057-0.104-0.077-0.156   c-0.009-0.024-0.019-0.048-0.027-0.072c-0.021-0.074-0.038-0.147-0.038-0.217C16.124,23.458,16.139,23.375,16.167,23.291z"/>
</g>
</svg>