<svg xmlns="http://www.w3.org/2000/svg" xmlns:xlink="http://www.w3.org/1999/xlink" version="1.1" id="Layer_1" x="0px" y="0px" width="100px" height="72.243px" viewBox="0 0 100 72.243" enable-background="new 0 0 100 72.243" xml:space="preserve">
<path d="M48.785,24.695c-0.091-0.091-0.191-0.179-0.297-0.265c-0.04-0.033-0.085-0.063-0.127-0.095  c-0.068-0.052-0.135-0.103-0.207-0.152c-0.058-0.04-0.12-0.077-0.18-0.116c-0.062-0.039-0.122-0.077-0.186-0.114  c-0.072-0.042-0.149-0.083-0.225-0.125c-0.055-0.029-0.111-0.059-0.168-0.088c-0.087-0.044-0.178-0.086-0.269-0.128  c-0.048-0.022-0.098-0.045-0.147-0.066c-0.103-0.045-0.208-0.089-0.315-0.132c-0.04-0.016-0.08-0.03-0.119-0.046  c-0.12-0.045-0.24-0.09-0.364-0.132c-0.028-0.01-0.056-0.019-0.084-0.028c-0.137-0.045-0.275-0.09-0.417-0.133  c-0.876-0.26-1.842-0.451-2.843-0.57c-0.404-0.047-0.812-0.084-1.221-0.107c-0.001,0-0.001,0-0.001,0  c-0.41-0.024-0.821-0.037-1.23-0.037h-0.001c-3.907,0-8.03,1.1-9,3.157c-0.139,0.294-0.213,0.607-0.213,0.94v0.483v1.669v2.87  c0,2.661,4.747,4.097,9.213,4.097c4.467,0,9.214-1.436,9.214-4.097v-5.022c0-0.166-0.018-0.328-0.054-0.485  c-0.072-0.313-0.213-0.607-0.413-0.881C49.03,24.955,48.915,24.823,48.785,24.695z M48.035,31.48c0,1.033-2.979,2.534-7.65,2.534  v-3.459c2.889,0,5.887-0.604,7.65-1.75V31.48z M40.384,28.993c-0.345,0-0.678-0.011-1.004-0.026  c-0.098-0.004-0.192-0.012-0.289-0.018c-0.233-0.014-0.462-0.033-0.686-0.054c-0.091-0.009-0.184-0.018-0.274-0.028  c-0.261-0.03-0.515-0.064-0.762-0.103c-0.032-0.005-0.068-0.009-0.1-0.014c-0.289-0.047-0.563-0.102-0.828-0.16  c-0.038-0.008-0.074-0.018-0.112-0.026c-0.226-0.052-0.443-0.108-0.65-0.167c-0.041-0.012-0.082-0.024-0.122-0.036  c-1.107-0.328-1.921-0.744-2.383-1.158c-0.017-0.016-0.034-0.031-0.05-0.048c-0.042-0.039-0.083-0.078-0.118-0.118  c-0.046-0.052-0.089-0.104-0.124-0.155c-0.015-0.023-0.026-0.045-0.039-0.067c-0.024-0.042-0.045-0.083-0.062-0.125  c-0.009-0.019-0.016-0.039-0.021-0.058c-0.017-0.059-0.03-0.118-0.03-0.174c0-0.064,0.012-0.131,0.035-0.198  c0.021-0.061,0.052-0.122,0.089-0.184c0.013-0.021,0.031-0.043,0.047-0.065c0.028-0.041,0.058-0.082,0.093-0.123  c0.024-0.027,0.052-0.054,0.079-0.081c0.036-0.036,0.072-0.072,0.113-0.108c0.034-0.03,0.072-0.06,0.11-0.09  c0.041-0.032,0.082-0.064,0.127-0.096c0.046-0.033,0.096-0.067,0.146-0.1c0.042-0.027,0.087-0.055,0.132-0.083  c0.061-0.037,0.123-0.073,0.188-0.109c0.041-0.022,0.084-0.044,0.126-0.066c0.078-0.04,0.156-0.08,0.241-0.119  c0.03-0.014,0.061-0.028,0.092-0.041c0.845-0.38,1.998-0.708,3.4-0.897c0.005-0.001,0.009-0.001,0.014-0.002  c0.201-0.027,0.407-0.051,0.618-0.071c0.009-0.001,0.017-0.001,0.025-0.003c0.212-0.021,0.428-0.039,0.65-0.053  c0.001,0,0.001,0,0.002,0c0.425-0.027,0.864-0.044,1.324-0.044c0.482,0,0.946,0.016,1.391,0.046c0.745,0.05,1.431,0.14,2.06,0.257  c0.044,0.008,0.087,0.017,0.13,0.025c0.497,0.097,0.955,0.212,1.37,0.339c0.042,0.013,0.084,0.026,0.126,0.04  c0.201,0.064,0.395,0.131,0.575,0.201c0.002,0.001,0.004,0.002,0.007,0.003c0.173,0.067,0.334,0.139,0.487,0.21  c0.038,0.018,0.074,0.036,0.111,0.054c0.148,0.073,0.291,0.147,0.417,0.223c0.003,0.002,0.006,0.005,0.011,0.007  c0.122,0.073,0.229,0.147,0.328,0.222c0.027,0.02,0.053,0.04,0.078,0.06c0.096,0.077,0.185,0.154,0.257,0.23  c0.2,0.214,0.306,0.424,0.306,0.618C48.035,27.492,45.054,28.993,40.384,28.993z"/>
<path d="M69.21,24.089v-5.021c0-0.167-0.019-0.328-0.055-0.485c-0.071-0.313-0.213-0.607-0.413-0.881  c-0.1-0.137-0.215-0.269-0.344-0.396c-0.092-0.091-0.191-0.179-0.297-0.265c-0.04-0.033-0.085-0.063-0.127-0.095  c-0.068-0.052-0.135-0.103-0.207-0.152c-0.058-0.04-0.119-0.078-0.18-0.116c-0.062-0.039-0.122-0.077-0.187-0.115  c-0.072-0.042-0.148-0.083-0.225-0.124c-0.055-0.03-0.111-0.06-0.168-0.088c-0.087-0.044-0.178-0.087-0.269-0.129  c-0.049-0.022-0.099-0.044-0.147-0.066c-0.104-0.045-0.208-0.089-0.315-0.132c-0.04-0.016-0.08-0.031-0.12-0.046  c-0.119-0.045-0.239-0.09-0.363-0.132c-0.028-0.01-0.056-0.018-0.084-0.028c-0.137-0.046-0.275-0.09-0.418-0.133  c-0.876-0.261-1.842-0.452-2.843-0.57c-0.403-0.047-0.812-0.084-1.222-0.108c-0.001,0-0.001,0-0.001,0  c-0.41-0.024-0.821-0.037-1.229-0.037h-0.001c-3.908,0-8.03,1.1-9,3.158c-0.139,0.293-0.213,0.607-0.213,0.94v0.482v1.669v2.87  c0,2.661,4.747,4.097,9.213,4.097S69.21,26.75,69.21,24.089z M67.648,24.089c0,1.033-2.98,2.535-7.65,2.535v-3.459  c2.888,0,5.887-0.604,7.65-1.749V24.089z M58.704,21.559c-0.233-0.015-0.463-0.033-0.686-0.054  c-0.091-0.009-0.184-0.018-0.274-0.028c-0.261-0.029-0.516-0.064-0.762-0.103c-0.032-0.005-0.067-0.009-0.1-0.015  c-0.289-0.047-0.563-0.101-0.828-0.16c-0.037-0.008-0.074-0.018-0.111-0.026c-0.227-0.052-0.443-0.108-0.65-0.167  c-0.041-0.012-0.082-0.023-0.122-0.036c-1.106-0.328-1.92-0.743-2.382-1.158c-0.018-0.016-0.034-0.032-0.051-0.048  c-0.042-0.04-0.083-0.079-0.117-0.118c-0.047-0.052-0.09-0.104-0.124-0.155c-0.015-0.022-0.025-0.045-0.039-0.067  c-0.023-0.042-0.045-0.083-0.061-0.125c-0.009-0.02-0.017-0.039-0.021-0.058c-0.018-0.059-0.03-0.118-0.03-0.174  c0-0.064,0.012-0.131,0.034-0.199c0.021-0.06,0.052-0.122,0.089-0.184c0.014-0.021,0.031-0.043,0.048-0.064  c0.028-0.041,0.058-0.082,0.094-0.123c0.023-0.027,0.052-0.054,0.078-0.081c0.036-0.036,0.072-0.072,0.113-0.108  c0.034-0.03,0.072-0.061,0.109-0.09c0.041-0.032,0.082-0.064,0.127-0.096c0.047-0.034,0.096-0.067,0.146-0.1  c0.042-0.028,0.088-0.055,0.133-0.083c0.061-0.037,0.122-0.073,0.188-0.109c0.041-0.022,0.084-0.043,0.126-0.065  c0.077-0.041,0.155-0.08,0.24-0.12c0.03-0.014,0.062-0.027,0.093-0.041c0.845-0.38,1.997-0.708,3.399-0.897  c0.006-0.001,0.01-0.001,0.015-0.002c0.201-0.027,0.406-0.051,0.617-0.072c0.009-0.001,0.018-0.001,0.024-0.002  c0.213-0.021,0.429-0.039,0.65-0.053c0.001,0,0.001,0,0.002,0c0.426-0.027,0.864-0.045,1.324-0.045c0.481,0,0.945,0.016,1.39,0.046  c0.745,0.05,1.432,0.14,2.061,0.257c0.044,0.008,0.087,0.016,0.13,0.025c0.497,0.097,0.954,0.212,1.37,0.339  c0.042,0.013,0.084,0.026,0.126,0.039c0.201,0.065,0.395,0.131,0.574,0.202c0.002,0.001,0.004,0.002,0.008,0.003  c0.173,0.068,0.333,0.139,0.486,0.21c0.037,0.018,0.074,0.036,0.11,0.053c0.149,0.073,0.291,0.147,0.417,0.223  c0.003,0.003,0.006,0.005,0.011,0.008c0.121,0.073,0.229,0.147,0.328,0.222c0.027,0.02,0.053,0.039,0.077,0.059  c0.096,0.077,0.186,0.154,0.258,0.23c0.2,0.213,0.306,0.424,0.306,0.618c0,1.034-2.981,2.535-7.651,2.535  c-0.346,0-0.679-0.011-1.004-0.026C58.895,21.572,58.8,21.565,58.704,21.559z"/>
<path d="M99.968,16.961c-0.007-0.022-0.017-0.043-0.024-0.064c-0.018-0.045-0.038-0.089-0.063-0.13  c-0.014-0.022-0.027-0.042-0.043-0.063c-0.029-0.039-0.062-0.073-0.099-0.105c-0.018-0.016-0.033-0.032-0.053-0.047  c-0.008-0.006-0.014-0.014-0.022-0.02c-0.051-0.036-0.105-0.063-0.162-0.085c0,0-0.001-0.001-0.002-0.001l-0.001-0.001  c-0.002,0-0.003-0.001-0.005-0.001l-10.671-4.085v-0.68c0-0.166-0.019-0.328-0.054-0.485c-0.072-0.313-0.213-0.607-0.413-0.881  c-0.101-0.137-0.216-0.269-0.345-0.396c-0.092-0.091-0.191-0.179-0.297-0.265c-0.04-0.033-0.085-0.063-0.127-0.095  c-0.068-0.052-0.135-0.103-0.207-0.152c-0.058-0.04-0.119-0.077-0.18-0.116c-0.062-0.039-0.121-0.077-0.186-0.114  c-0.072-0.042-0.148-0.083-0.226-0.125c-0.055-0.03-0.11-0.059-0.168-0.088c-0.087-0.044-0.177-0.086-0.269-0.128  c-0.049-0.022-0.098-0.044-0.147-0.066c-0.104-0.045-0.208-0.089-0.315-0.132c-0.04-0.016-0.08-0.031-0.119-0.046  c-0.12-0.045-0.24-0.09-0.364-0.132c-0.027-0.01-0.056-0.019-0.084-0.028c-0.137-0.045-0.275-0.09-0.417-0.133  c-0.876-0.26-1.843-0.451-2.844-0.57c-0.403-0.047-0.811-0.084-1.221-0.107c-0.001,0-0.001,0-0.001,0  c-0.41-0.024-0.821-0.037-1.23-0.037h-0.001c-0.93,0-1.87,0.064-2.778,0.187l-7.809-2.988V4.098c0-0.167-0.019-0.328-0.054-0.485  c-0.072-0.313-0.213-0.607-0.414-0.881c-0.1-0.137-0.215-0.269-0.344-0.396c-0.092-0.091-0.191-0.179-0.297-0.265  c-0.04-0.033-0.085-0.063-0.127-0.095c-0.068-0.052-0.135-0.103-0.207-0.152c-0.058-0.04-0.119-0.078-0.18-0.116  c-0.062-0.039-0.121-0.077-0.187-0.115c-0.071-0.042-0.148-0.083-0.225-0.124c-0.055-0.03-0.11-0.06-0.168-0.088  c-0.087-0.044-0.178-0.086-0.269-0.128c-0.049-0.023-0.098-0.045-0.147-0.066c-0.104-0.045-0.208-0.089-0.315-0.132  c-0.04-0.016-0.08-0.031-0.119-0.046c-0.12-0.045-0.24-0.09-0.364-0.132c-0.028-0.01-0.056-0.018-0.084-0.028  c-0.137-0.046-0.275-0.09-0.417-0.133c-0.876-0.261-1.843-0.452-2.844-0.57c-0.403-0.047-0.812-0.084-1.221-0.108  c-0.002,0-0.002,0-0.002,0C60.629,0.013,60.218,0,59.809,0h-0.001c-3.907,0-8.03,1.1-9,3.158c-0.139,0.293-0.213,0.607-0.213,0.94  V4.58l-7.87,2.965c-0.026-0.002-0.051-0.007-0.077-0.01c-0.403-0.047-0.811-0.084-1.221-0.107c-0.001,0-0.001,0-0.001,0  c-0.41-0.024-0.821-0.037-1.23-0.037h-0.001c-3.907,0-8.03,1.1-9,3.157c-0.139,0.294-0.213,0.607-0.213,0.94v0.482l-7.869,2.966  c0.024,0.003,0.049,0.007,0.073,0.01c-0.05-0.006-0.1-0.015-0.15-0.021c-0.404-0.047-0.812-0.084-1.222-0.108  c-0.001,0-0.001,0-0.001,0c-0.41-0.024-0.821-0.037-1.23-0.037h-0.001c-3.908,0-8.03,1.1-9,3.158  c-0.138,0.293-0.213,0.607-0.213,0.94v0.482L0.508,23.453c-0.001,0-0.001,0-0.003,0.001l0,0c-0.059,0.022-0.114,0.051-0.167,0.087  c-0.008,0.006-0.013,0.013-0.021,0.019c-0.02,0.014-0.036,0.031-0.054,0.047c-0.036,0.032-0.069,0.066-0.098,0.104  c-0.016,0.021-0.03,0.041-0.043,0.063c-0.026,0.042-0.046,0.084-0.064,0.129C0.05,23.926,0.04,23.947,0.033,23.97  c-0.019,0.066-0.031,0.134-0.032,0.205C0.001,24.178,0,24.18,0,24.183c0,0,0,0,0,0.001s0,0,0,0.001v32.118  c0,0.324,0.2,0.614,0.502,0.729l39.602,15.159c0.007,0.003,0.015,0.002,0.022,0.004c0.083,0.029,0.169,0.048,0.257,0.048  c0.087,0,0.172-0.018,0.254-0.047c0.007-0.002,0.014-0.001,0.021-0.003l58.837-22.171c0.304-0.114,0.505-0.406,0.505-0.73V17.173  C100,17.1,99.987,17.03,99.968,16.961z M76.978,9.316c0.005-0.001,0.01-0.001,0.014-0.002c0.201-0.027,0.406-0.051,0.617-0.072  c0.009-0.001,0.018-0.001,0.025-0.003c0.212-0.021,0.428-0.039,0.649-0.053c0.001,0,0.001,0,0.003,0  c0.425-0.027,0.863-0.044,1.323-0.044c0.482,0,0.946,0.016,1.391,0.046c0.744,0.05,1.431,0.14,2.06,0.257  c0.044,0.008,0.087,0.016,0.13,0.024c0.497,0.097,0.955,0.212,1.37,0.34c0.042,0.013,0.084,0.026,0.126,0.039  c0.201,0.064,0.395,0.131,0.574,0.201c0.003,0.001,0.005,0.002,0.008,0.003c0.174,0.068,0.334,0.139,0.486,0.21  c0.038,0.018,0.074,0.035,0.111,0.053c0.148,0.073,0.29,0.147,0.416,0.223c0.003,0.002,0.007,0.005,0.011,0.007  c0.122,0.073,0.229,0.147,0.328,0.222c0.027,0.02,0.053,0.04,0.078,0.06c0.096,0.077,0.185,0.154,0.257,0.23  c0.2,0.214,0.306,0.424,0.306,0.618c0,1.034-2.98,2.535-7.651,2.535c-0.346,0-0.678-0.011-1.004-0.026  c-0.098-0.004-0.192-0.011-0.288-0.018c-0.234-0.014-0.463-0.033-0.686-0.054c-0.092-0.009-0.185-0.018-0.274-0.028  c-0.262-0.03-0.516-0.064-0.763-0.103c-0.032-0.005-0.067-0.009-0.1-0.014c-0.288-0.047-0.562-0.102-0.828-0.16  c-0.037-0.008-0.074-0.018-0.111-0.026c-0.227-0.052-0.443-0.108-0.65-0.167c-0.041-0.012-0.081-0.024-0.121-0.036  c-1.107-0.328-1.921-0.744-2.383-1.158c-0.018-0.017-0.034-0.032-0.051-0.048c-0.042-0.04-0.083-0.079-0.117-0.118  c-0.046-0.052-0.089-0.104-0.124-0.155c-0.015-0.023-0.025-0.045-0.038-0.067c-0.023-0.042-0.046-0.083-0.062-0.125  c-0.009-0.019-0.017-0.039-0.021-0.058c-0.018-0.059-0.03-0.118-0.03-0.174c0-0.064,0.012-0.13,0.034-0.198  c0.021-0.061,0.052-0.123,0.09-0.184c0.013-0.021,0.031-0.043,0.047-0.064c0.028-0.041,0.059-0.082,0.094-0.124  c0.023-0.027,0.052-0.054,0.079-0.081c0.035-0.036,0.071-0.072,0.112-0.108c0.035-0.03,0.072-0.06,0.11-0.09  c0.041-0.032,0.081-0.064,0.127-0.096c0.046-0.033,0.096-0.067,0.146-0.1c0.042-0.027,0.087-0.055,0.132-0.083  c0.061-0.036,0.123-0.073,0.188-0.109c0.041-0.022,0.084-0.043,0.126-0.066c0.077-0.04,0.156-0.08,0.241-0.119  c0.03-0.014,0.062-0.027,0.092-0.041C74.423,9.833,75.575,9.506,76.978,9.316z M87.261,14.025v2.674c0,1.033-2.979,2.534-7.65,2.534  v-3.459C82.499,15.774,85.497,15.17,87.261,14.025z M52.191,3.899c0.021-0.06,0.052-0.122,0.09-0.184  c0.013-0.021,0.031-0.043,0.047-0.064c0.028-0.041,0.059-0.082,0.094-0.123C52.445,3.5,52.474,3.474,52.5,3.447  c0.036-0.036,0.072-0.072,0.113-0.108c0.034-0.03,0.072-0.06,0.11-0.09c0.04-0.032,0.081-0.064,0.127-0.096  c0.046-0.034,0.096-0.067,0.146-0.1c0.042-0.027,0.088-0.055,0.133-0.083c0.061-0.037,0.123-0.073,0.188-0.109  c0.041-0.022,0.084-0.043,0.126-0.065c0.077-0.041,0.156-0.08,0.241-0.12c0.029-0.014,0.061-0.027,0.092-0.041  c0.845-0.38,1.998-0.708,3.399-0.898c0.006-0.001,0.01-0.001,0.015-0.002c0.201-0.027,0.406-0.051,0.617-0.071  c0.009-0.001,0.018-0.002,0.025-0.003c0.212-0.021,0.428-0.039,0.649-0.053c0.001,0,0.001,0,0.002,0  c0.426-0.027,0.864-0.044,1.324-0.044c0.482,0,0.946,0.016,1.391,0.046c0.744,0.05,1.431,0.14,2.06,0.257  c0.044,0.008,0.087,0.016,0.13,0.025c0.497,0.097,0.955,0.212,1.37,0.339c0.042,0.013,0.084,0.026,0.126,0.04  c0.201,0.064,0.395,0.131,0.574,0.201c0.002,0.001,0.005,0.002,0.008,0.003c0.173,0.068,0.334,0.139,0.486,0.21  c0.038,0.018,0.074,0.036,0.111,0.053c0.148,0.073,0.29,0.147,0.416,0.223c0.003,0.002,0.007,0.004,0.011,0.007  c0.122,0.073,0.229,0.147,0.328,0.222c0.027,0.02,0.053,0.039,0.078,0.059c0.096,0.077,0.185,0.154,0.257,0.23  c0.2,0.213,0.306,0.424,0.306,0.618c0,1.034-2.981,2.535-7.651,2.535c-0.346,0-0.678-0.011-1.004-0.026  c-0.099-0.004-0.193-0.011-0.289-0.017c-0.233-0.015-0.462-0.033-0.686-0.054c-0.091-0.009-0.184-0.018-0.274-0.028  c-0.261-0.029-0.515-0.064-0.762-0.103c-0.032-0.005-0.067-0.009-0.1-0.015c-0.289-0.047-0.563-0.101-0.828-0.16  c-0.037-0.008-0.074-0.018-0.111-0.026c-0.227-0.052-0.443-0.108-0.65-0.167c-0.041-0.012-0.082-0.023-0.121-0.035  c-1.107-0.328-1.921-0.744-2.383-1.158c-0.018-0.016-0.034-0.032-0.051-0.048c-0.042-0.039-0.083-0.079-0.117-0.118  c-0.046-0.052-0.089-0.104-0.124-0.155c-0.015-0.022-0.025-0.045-0.038-0.067c-0.024-0.042-0.046-0.083-0.062-0.125  c-0.009-0.02-0.017-0.039-0.021-0.058c-0.018-0.059-0.03-0.118-0.03-0.174C52.157,4.033,52.169,3.967,52.191,3.899z M67.46,6.445  V9.12c0,1.033-2.98,2.534-7.65,2.534V8.194C62.698,8.194,65.696,7.59,67.46,6.445z M32.579,11.29  c0.021-0.061,0.052-0.122,0.089-0.184c0.013-0.021,0.031-0.043,0.047-0.064c0.028-0.041,0.058-0.082,0.094-0.124  c0.023-0.027,0.052-0.054,0.079-0.081c0.035-0.036,0.072-0.072,0.113-0.108c0.035-0.03,0.072-0.061,0.11-0.091  c0.041-0.032,0.082-0.064,0.127-0.096c0.046-0.033,0.096-0.066,0.146-0.1c0.042-0.027,0.087-0.055,0.132-0.082  c0.06-0.037,0.123-0.073,0.188-0.109c0.041-0.022,0.084-0.043,0.126-0.066c0.078-0.04,0.156-0.08,0.241-0.119  c0.03-0.014,0.062-0.027,0.093-0.041c0.845-0.38,1.997-0.708,3.399-0.897c0.005-0.001,0.01-0.001,0.014-0.002  c0.202-0.027,0.407-0.051,0.618-0.072c0.008-0.001,0.017-0.001,0.024-0.002c0.212-0.021,0.428-0.039,0.65-0.053  c0.001,0,0.001,0,0.002,0c0.425-0.028,0.864-0.045,1.324-0.045c0.482,0,0.946,0.016,1.39,0.046c0.745,0.05,1.431,0.14,2.06,0.257  c0.044,0.008,0.087,0.016,0.13,0.024c0.497,0.097,0.955,0.212,1.37,0.34c0.042,0.013,0.084,0.026,0.125,0.039  c0.202,0.064,0.395,0.131,0.575,0.201c0.002,0.001,0.004,0.002,0.008,0.003c0.173,0.068,0.333,0.139,0.486,0.21  c0.038,0.018,0.074,0.035,0.111,0.053c0.148,0.073,0.291,0.147,0.417,0.223c0.003,0.002,0.006,0.005,0.011,0.007  c0.122,0.073,0.229,0.147,0.328,0.223c0.027,0.02,0.053,0.039,0.078,0.059c0.096,0.077,0.185,0.154,0.257,0.23  c0.2,0.214,0.305,0.424,0.305,0.618c0,1.034-2.98,2.535-7.651,2.535c-0.346,0-0.678-0.011-1.004-0.026  c-0.098-0.004-0.192-0.011-0.288-0.017c-0.234-0.015-0.463-0.033-0.686-0.055c-0.092-0.009-0.184-0.018-0.274-0.028  c-0.262-0.03-0.516-0.064-0.762-0.103c-0.032-0.005-0.068-0.009-0.1-0.014c-0.288-0.047-0.562-0.101-0.827-0.16  c-0.038-0.008-0.074-0.018-0.112-0.026c-0.226-0.052-0.443-0.108-0.65-0.167c-0.041-0.012-0.082-0.024-0.122-0.036  c-1.107-0.328-1.921-0.744-2.382-1.158c-0.018-0.016-0.035-0.032-0.051-0.048c-0.042-0.04-0.083-0.079-0.117-0.118  c-0.046-0.052-0.089-0.104-0.124-0.155c-0.015-0.022-0.026-0.045-0.039-0.067c-0.023-0.042-0.045-0.083-0.062-0.125  c-0.008-0.02-0.016-0.039-0.021-0.059c-0.017-0.059-0.03-0.118-0.03-0.174C32.544,11.423,32.556,11.357,32.579,11.29z   M47.847,13.835v2.674c0,1.033-2.979,2.534-7.65,2.534v-3.459C43.085,15.584,46.083,14.98,47.847,13.835z M12.966,18.68  c0.021-0.06,0.052-0.122,0.089-0.184c0.013-0.021,0.032-0.043,0.047-0.064c0.028-0.041,0.058-0.082,0.094-0.123  c0.023-0.027,0.052-0.054,0.078-0.081c0.035-0.036,0.072-0.072,0.113-0.108c0.034-0.03,0.072-0.06,0.11-0.09  c0.04-0.032,0.082-0.064,0.126-0.096c0.046-0.034,0.096-0.067,0.147-0.1c0.042-0.028,0.086-0.055,0.132-0.083  c0.06-0.037,0.123-0.073,0.188-0.109c0.041-0.022,0.083-0.043,0.125-0.065c0.078-0.041,0.157-0.08,0.242-0.12  c0.03-0.014,0.062-0.027,0.092-0.041c0.845-0.381,1.998-0.708,3.4-0.897c0.005-0.001,0.01-0.002,0.014-0.002  c0.201-0.027,0.407-0.051,0.618-0.072c0.008-0.001,0.017-0.001,0.025-0.002c0.212-0.021,0.428-0.039,0.65-0.053  c0.001,0,0.001,0,0.002,0c0.425-0.027,0.864-0.044,1.324-0.044c0.482,0,0.946,0.016,1.391,0.046c0.745,0.05,1.431,0.14,2.06,0.257  c0.044,0.008,0.087,0.016,0.13,0.025c0.498,0.097,0.955,0.212,1.37,0.339c0.042,0.013,0.084,0.026,0.126,0.04  c0.201,0.064,0.395,0.131,0.575,0.201c0.002,0.001,0.004,0.002,0.007,0.003c0.173,0.068,0.334,0.139,0.486,0.21  c0.038,0.018,0.074,0.036,0.111,0.053c0.149,0.073,0.291,0.147,0.417,0.223c0.003,0.003,0.007,0.005,0.011,0.008  c0.122,0.073,0.229,0.147,0.329,0.222c0.027,0.02,0.053,0.039,0.077,0.059c0.096,0.077,0.185,0.154,0.257,0.23  c0.2,0.213,0.306,0.424,0.306,0.618c0,1.034-2.981,2.535-7.651,2.535c-0.346,0-0.678-0.011-1.004-0.026  c-0.098-0.004-0.193-0.011-0.289-0.017c-0.233-0.015-0.463-0.033-0.686-0.054c-0.091-0.009-0.184-0.018-0.274-0.028  c-0.261-0.029-0.515-0.064-0.762-0.103c-0.032-0.005-0.068-0.009-0.1-0.015c-0.289-0.047-0.563-0.101-0.828-0.16  c-0.038-0.008-0.074-0.018-0.112-0.026c-0.226-0.052-0.443-0.108-0.65-0.167c-0.041-0.012-0.082-0.023-0.122-0.036  c-1.107-0.328-1.921-0.743-2.382-1.158c-0.018-0.016-0.035-0.032-0.051-0.048c-0.042-0.039-0.083-0.079-0.117-0.118  c-0.046-0.052-0.089-0.104-0.124-0.155c-0.016-0.022-0.026-0.045-0.039-0.067c-0.024-0.042-0.045-0.083-0.062-0.125  c-0.008-0.02-0.016-0.039-0.021-0.058c-0.017-0.059-0.03-0.118-0.03-0.174C12.932,18.814,12.943,18.748,12.966,18.68z   M28.234,21.226V23.9c0,1.033-2.98,2.534-7.65,2.534v-3.459C23.473,22.975,26.471,22.371,28.234,21.226z M40.385,38.509  l-24.341-9.317l-13.063-5l8.389-3.161v0v2.87c0,2.661,4.747,4.097,9.213,4.097c4.467,0,9.214-1.436,9.214-4.097v-5.022  c0-0.167-0.019-0.328-0.054-0.485c-0.072-0.313-0.213-0.607-0.414-0.881c-0.1-0.137-0.215-0.269-0.344-0.396  c-0.091-0.091-0.191-0.179-0.297-0.265c-0.04-0.033-0.085-0.063-0.127-0.095c-0.068-0.052-0.135-0.103-0.207-0.152  c-0.058-0.04-0.12-0.078-0.18-0.116c-0.061-0.039-0.122-0.077-0.186-0.115c-0.072-0.042-0.148-0.083-0.225-0.124  c-0.055-0.03-0.111-0.059-0.168-0.088c-0.087-0.044-0.178-0.086-0.269-0.128c-0.048-0.023-0.098-0.045-0.147-0.066  c-0.104-0.045-0.208-0.089-0.315-0.132c-0.04-0.016-0.08-0.031-0.119-0.046c-0.12-0.045-0.24-0.09-0.364-0.132  c-0.028-0.01-0.056-0.018-0.084-0.028c-0.105-0.035-0.213-0.069-0.321-0.102l5.006-1.887v0v2.87c0,2.661,4.747,4.097,9.213,4.097  c4.467,0,9.214-1.436,9.214-4.097v-5.022c0-0.166-0.018-0.328-0.054-0.484c-0.072-0.313-0.213-0.607-0.413-0.881  c-0.1-0.138-0.215-0.269-0.344-0.397C48.505,9.634,48.405,9.547,48.3,9.46c-0.04-0.033-0.085-0.063-0.127-0.095  c-0.068-0.052-0.134-0.103-0.207-0.152c-0.058-0.04-0.12-0.077-0.18-0.116c-0.061-0.039-0.122-0.077-0.186-0.114  c-0.072-0.042-0.148-0.083-0.225-0.125C47.321,8.83,47.265,8.8,47.208,8.771c-0.087-0.044-0.177-0.086-0.269-0.128  c-0.048-0.022-0.098-0.044-0.147-0.066c-0.103-0.045-0.208-0.089-0.315-0.132c-0.04-0.016-0.08-0.031-0.12-0.046  c-0.12-0.045-0.24-0.09-0.364-0.132c-0.028-0.01-0.056-0.019-0.084-0.028c-0.105-0.035-0.213-0.069-0.321-0.102l5.007-1.886V9.12  c0,2.661,4.748,4.097,9.213,4.097c4.467,0,9.214-1.436,9.214-4.097V6.45l5.027,1.925c-1.66,0.532-2.952,1.325-3.44,2.362  c-0.139,0.294-0.213,0.607-0.213,0.94v0.483v1.669v2.87c0,2.661,4.747,4.097,9.213,4.097c4.467,0,9.214-1.436,9.214-4.097v-2.67  l8.198,3.139L40.385,38.509z M98.438,48.751L41.164,70.333V39.884l20.307-7.652l36.968-13.929V48.751z"/>
</svg>