<svg width="250px" height="95px" viewBox="0 0 250 95" version="1.1" xmlns="http://www.w3.org/2000/svg" xmlns:xlink="http://www.w3.org/1999/xlink" xmlns:sketch="http://www.bohemiancoding.com/sketch/ns">
    <defs>
        <path d="M0.994788918,77.6107498 L1.11808035,62.8286748 L16.4062183,62.8286748 C19.5296169,62.8286748 22.1598079,61.7871298 24.2968701,59.7040085 C26.4339324,57.6208873 27.5024475,55.0570842 27.5024475,52.0125224 C27.5024475,45.8432787 25.3037722,40.7557319 20.9063557,36.7497295 C16.5089392,32.7437271 12.2143305,28.8179036 8.02240072,24.9721413 C3.41949746,19.1233778 1.11808035,11.191612 1.11808035,1.17660596 L16.4062183,1.17660596 C16.4062183,10.3904115 18.6665387,17.721286 23.1872472,23.1694492 C27.379177,27.0152115 31.5710438,30.8609162 35.7629736,34.7066785 C40.3658769,39.2735212 42.667294,45.0420782 42.667294,52.0125224 C42.667294,59.1432067 40.1192965,65.1921796 35.023225,70.1596226 C29.9271535,75.1270655 23.7215467,77.6107498 16.4062183,77.6107498 L0.994788918,77.6107498 Z M86.7914607,76.8030575 L86.7914607,64.4922085 L74.0607939,64.4922085 C70.3560839,64.4922085 67.2576458,63.2775502 64.7653863,60.8481972 C62.2731269,58.4188442 61.0270159,55.3986128 61.0270159,51.7874124 C61.0270159,48.1105538 62.2562876,45.0410795 64.7148678,42.5788974 C67.1734481,40.1167153 70.2213682,38.8856427 73.8587198,38.8856427 L86.8924978,38.9841295 L86.7914607,26.476307 L73.8587198,26.476307 C66.7860918,26.476307 60.7912874,28.9384521 55.874127,33.8628163 C50.9569665,38.7871805 48.4984232,44.7619862 48.4984232,51.7874124 C48.4984232,58.8128387 50.9401272,64.7384014 55.8236084,69.5642783 C60.7070897,74.3901552 66.7524121,76.8030575 73.9597568,76.8030575 L86.7914607,76.8030575 Z M129.081074,76.8030575 L141.50863,76.8030575 L141.50863,26.476307 L115.643148,26.476307 C108.637879,26.476307 102.676753,28.9384521 97.7595926,33.8628163 C92.8424321,38.7871805 90.3838887,44.7619862 90.3838887,51.7874124 C90.3838887,58.8784969 92.8087534,64.8204739 97.6585555,69.6135217 C102.508358,74.4065695 108.536841,76.8030575 115.744185,76.8030575 L124.433371,76.8030575 L124.433371,64.6891821 L115.643148,64.6891821 C112.073155,64.6891821 109.042074,63.4416952 106.549815,60.946684 C104.057555,58.4516728 102.811444,55.3986128 102.811444,51.7874124 C102.811444,48.1105538 104.040716,45.0410795 106.499296,42.5788974 C108.957877,40.1167153 112.005797,38.8856427 115.643148,38.8856427 L129.182111,38.9841295 L129.081074,76.8030575 Z M149.81612,91.152016 L162.44575,91.152016 L162.44575,0.690477577 L149.917157,0.690477577 L149.81612,91.152016 Z M171.539083,91.152016 L184.168713,91.152016 L184.168713,0.690477577 L171.64012,0.690477577 L171.539083,91.152016 Z M202.680944,26.5747938 L190.455462,26.476307 L207.833833,76.8030575 L218.947907,76.8030575 L220.160351,75.3257556 L202.680944,26.5747938 Z M227.010584,91.2230542 C242.430463,64.8159607 250.140286,47.6826336 250.140286,39.8225587 C250.140286,34.3756648 247.364042,30.7042375 241.811471,28.8081668 C236.258901,26.9120962 226.975283,25.964075 213.96034,25.964075 L213.96034,38.7883435 C221.033679,38.7883435 225.242252,38.8572905 226.586186,38.9951866 C232.598524,39.6157188 235.604648,42.0288635 235.604648,46.234693 C235.604648,49.6820942 233.924755,54.8358818 230.564919,61.6962102 C227.205083,68.5565387 221.599547,78.4331951 213.748141,91.3264757 L227.010584,91.2230542 Z" id="path-1"></path>
    </defs>
    <g id="Page-1" stroke="none" stroke-width="1" fill="none" fill-rule="evenodd" sketch:type="MSPage">
        <g id="Rainbow" sketch:type="MSLayerGroup" transform="translate(-1.000000, -0.423077)">
            <g id="Scally-4">
                <use fill="none" sketch:type="MSShapeGroup" xlink:href="#path-1"></use>
                <use fill="none" xlink:href="#path-1"></use>
                <use fill="none" xlink:href="#path-1"></use>
                <use fill="#FFFFFF" fill-rule="evenodd" xlink:href="#path-1"></use>
                <use fill="none" xlink:href="#path-1"></use>
            </g>
            <text id="css-framework" fill="#FFFFFF" sketch:type="MSTextLayer" font-family="Gulim" font-size="12.2352941" font-weight="normal">
                <tspan x="1" y="94.4113051">css framework</tspan>
            </text>
        </g>
    </g>
</svg>