<svg width="251" height="92" viewBox="0 0 251 92" xmlns="http://www.w3.org/2000/svg" xmlns:xlink="http://www.w3.org/1999/xlink"><title>Scally CSS framework logo</title><defs><path id="path-scally" d="M.095 77.968l.124-14.97h15.35c3.137 0 5.778-1.054 7.924-3.164 2.146-2.11 3.22-4.706 3.22-7.79 0-6.246-2.21-11.4-6.625-15.455-4.416-4.058-8.73-8.034-12.938-11.93C2.53 18.74.22 10.707.22.565h15.35c0 9.33 2.27 16.755 6.81 22.272 4.21 3.894 8.418 7.79 12.627 11.684 4.622 4.624 6.933 10.466 6.933 17.525 0 7.22-2.558 13.347-7.676 18.378-5.117 5.03-11.348 7.545-18.694 7.545H.095zm86.152-.818V64.683H73.464c-3.72 0-6.832-1.23-9.334-3.69-2.503-2.46-3.754-5.52-3.754-9.176 0-3.723 1.234-6.832 3.703-9.325 2.468-2.494 5.528-3.74 9.18-3.74l13.088.1-.1-12.667H73.26c-7.1 0-13.12 2.493-18.058 7.48-4.938 4.987-7.407 11.038-7.407 18.152 0 7.115 2.452 13.116 7.356 18.003 4.905 4.887 10.975 7.33 18.212 7.33h12.885zm42.464 0h12.48V26.185h-25.972c-7.034 0-13.02 2.493-17.958 7.48-4.937 4.987-7.406 11.038-7.406 18.152 0 7.18 2.435 13.2 7.305 18.053 4.87 4.853 10.922 7.28 18.16 7.28h8.724V64.883h-8.826c-3.585 0-6.628-1.264-9.13-3.79-2.504-2.527-3.755-5.62-3.755-9.276 0-3.723 1.234-6.832 3.703-9.325 2.47-2.494 5.53-3.74 9.182-3.74l13.595.1-.102 38.298zm20.822 14.53h12.682V.073h-12.58l-.102 91.61zm21.813 0h12.682V.073h-12.58l-.102 91.61zm31.27-65.396l-12.275-.1 17.45 50.966h11.16l1.217-1.496-17.55-49.37zm24.43 65.47C242.53 65.01 250.272 47.66 250.272 39.7c0-5.516-2.786-9.234-8.362-11.154-5.575-1.92-14.897-2.88-27.966-2.88v12.987c7.102 0 11.328.07 12.678.21 6.037.628 9.056 3.072 9.056 7.33 0 3.492-1.687 8.71-5.06 15.66-3.375 6.946-9.003 16.948-16.887 30.005l13.316-.105z"/><path id="path-css-framework" d="M2.963 84.937c.704 0 1.292.17 1.763.508.392.29.652.65.78 1.077.024.105.004.198-.06.278-.056.08-.136.133-.24.158-.112.024-.212.016-.3-.025-.104-.048-.168-.13-.192-.242-.12-.378-.323-.656-.61-.834-.29-.17-.685-.254-1.19-.254-.68 0-1.203.287-1.57.86-.33.5-.493 1.14-.493 1.923 0 .8.165 1.448.493 1.948.36.55.884.823 1.572.823.568 0 1-.088 1.296-.266.297-.177.516-.476.66-.895.032-.113.104-.194.216-.242.096-.04.196-.05.3-.025.112.025.192.077.24.158.056.08.06.18.012.302-.24.508-.532.892-.876 1.15-.455.33-1.055.496-1.8.496-.967 0-1.703-.347-2.207-1.04-.44-.606-.66-1.404-.66-2.397 0-.96.228-1.758.684-2.395.52-.71 1.247-1.065 2.183-1.065zm6.383 0c-.648 0-1.172.145-1.572.435-.424.307-.636.73-.636 1.27 0 .5.176.9.528 1.2.32.28.836.515 1.548.7.784.194 1.32.408 1.607.642.24.185.36.444.36.774 0 .355-.14.638-.42.847-.295.234-.702.35-1.222.35-.624 0-1.076-.116-1.356-.35-.264-.217-.396-.536-.396-.956-.008-.113-.052-.198-.132-.255-.072-.056-.16-.08-.264-.072-.104 0-.188.032-.252.097-.08.072-.116.165-.108.278.024.63.248 1.11.672 1.44.424.33 1.032.496 1.824.496s1.4-.186 1.823-.557c.39-.33.587-.766.587-1.307 0-.54-.164-.964-.492-1.27-.344-.33-.936-.593-1.775-.787-.688-.177-1.16-.367-1.416-.568-.24-.194-.36-.456-.36-.787 0-.282.136-.516.408-.702.272-.17.612-.254 1.02-.254.536 0 .94.1 1.21.303.257.185.4.456.433.81.008.113.056.202.144.267.08.056.17.08.275.072.112-.016.204-.056.276-.12.08-.08.117-.178.11-.29-.04-.493-.237-.888-.59-1.187-.415-.347-1.026-.52-1.834-.52zm6.455 0c-.647 0-1.17.145-1.57.435-.425.307-.637.73-.637 1.27 0 .5.176.9.528 1.2.32.28.837.515 1.55.7.782.194 1.318.408 1.606.642.24.185.36.444.36.774 0 .355-.14.638-.42.847-.296.234-.704.35-1.223.35-.624 0-1.076-.116-1.356-.35-.264-.217-.396-.536-.396-.956-.007-.113-.05-.198-.13-.255-.073-.056-.16-.08-.265-.072-.104 0-.188.032-.252.097-.08.072-.116.165-.108.278.024.63.248 1.11.672 1.44.424.33 1.032.496 1.824.496s1.4-.186 1.824-.557c.392-.33.588-.766.588-1.307 0-.54-.164-.964-.492-1.27-.344-.33-.936-.593-1.775-.787-.688-.177-1.16-.367-1.416-.568-.24-.194-.36-.456-.36-.787 0-.282.135-.516.407-.702.272-.17.612-.254 1.02-.254.535 0 .94.1 1.21.303.257.185.4.456.433.81.008.113.056.202.144.267.08.056.172.08.276.072.112-.016.204-.056.276-.12.08-.08.116-.178.108-.29-.04-.493-.236-.888-.588-1.187-.416-.347-1.028-.52-1.835-.52zm9.12.205h-.6c-.12 0-.217.033-.29.097-.063.064-.095.14-.095.23 0 .088.032.165.096.23.073.072.17.108.29.108h.6v5.614c0 .13.035.234.107.315.072.065.16.097.264.097.097 0 .18-.036.253-.11.08-.08.12-.18.12-.302v-5.614h.876c.12 0 .215-.036.287-.11.064-.063.096-.14.096-.23 0-.088-.032-.164-.096-.23-.072-.063-.168-.096-.288-.096h-.877V83.74c0-.154.04-.28.12-.376.096-.113.232-.17.408-.17h.35c.12 0 .215-.036.287-.11.064-.063.096-.14.096-.228 0-.097-.032-.178-.096-.242-.072-.065-.168-.097-.288-.097h-.48c-.37 0-.657.12-.865.363-.184.218-.276.488-.276.81v1.452zm3.61.23v6.063c0 .12.036.217.108.29.072.065.16.097.264.097.096 0 .18-.032.252-.097.08-.073.12-.17.12-.29v-4.72c.144-.314.352-.56.624-.738.304-.2.652-.302 1.044-.302.2 0 .296-.125.288-.375-.008-.242-.1-.363-.276-.363-.384 0-.728.097-1.032.29-.232.145-.448.36-.648.642v-.498c0-.113-.04-.2-.12-.266-.072-.048-.156-.072-.252-.072-.104 0-.192.028-.264.084-.072.065-.108.15-.108.254zm8.16 4.695c-.185.33-.453.59-.805.775-.392.21-.864.314-1.416.314-.49 0-.848-.105-1.08-.314-.224-.194-.336-.488-.336-.884 0-.41.12-.722.36-.93.248-.227.67-.38 1.27-.46.6-.082 1.073-.175 1.417-.28.28-.088.477-.18.59-.278v2.057zm-1.645-5.13c-.672 0-1.21.15-1.62.447-.415.315-.67.783-.767 1.404-.024.12 0 .218.072.29.064.073.144.113.24.122.104.008.192-.017.264-.073.088-.057.14-.137.156-.242.04-.403.18-.71.42-.92.27-.242.68-.363 1.223-.363.56 0 .98.105 1.26.315.264.202.396.5.396.895 0 .347-.12.585-.36.714-.25.137-.8.266-1.657.387-.967.12-1.635.392-2.003.81-.248.292-.372.703-.372 1.235 0 .59.18 1.045.54 1.368.368.34.912.508 1.63.508.53 0 1-.093 1.417-.278.304-.138.576-.323.816-.557 0 .25.073.427.217.53.176.114.492.17.948.17.112 0 .2-.035.264-.108.055-.065.083-.14.083-.23-.008-.097-.04-.177-.096-.242-.064-.065-.144-.097-.24-.097-.144 0-.256-.04-.336-.12-.07-.073-.107-.178-.107-.315v-3.836c0-.637-.232-1.11-.696-1.416-.408-.266-.972-.4-1.692-.4zm4.488.508v6.014c0 .112.036.204.108.277.073.065.16.097.264.097.096 0 .18-.032.252-.097.08-.073.12-.165.12-.278v-4.696c.264-.42.544-.718.84-.895.296-.18.656-.268 1.08-.268.384 0 .688.113.912.34.2.21.3.487.3.834v4.683c0 .112.036.204.108.277.072.065.16.097.264.097.096 0 .18-.032.252-.097.08-.073.12-.165.12-.278v-4.587c.232-.452.492-.775.78-.968.288-.202.66-.303 1.115-.303.4 0 .708.113.924.34.2.21.3.487.3.834v4.683c0 .112.037.204.11.277.07.065.16.097.263.097.096 0 .18-.032.252-.097.08-.073.12-.165.12-.278v-4.805c0-.436-.164-.82-.492-1.15-.376-.38-.876-.568-1.5-.568-.455 0-.867.105-1.235.314-.336.187-.608.445-.816.776-.144-.307-.332-.55-.564-.726-.328-.242-.74-.363-1.236-.363-.392 0-.776.105-1.152.314-.304.17-.552.385-.744.643v-.448c0-.137-.04-.242-.12-.315-.072-.072-.156-.11-.252-.11-.104 0-.19.038-.263.11-.07.073-.107.178-.107.315zm14.853 4.344c-.192.418-.412.733-.66.943-.32.282-.72.423-1.2.423-.608 0-1.09-.278-1.45-.835-.313-.466-.485-1.043-.517-1.73h4.714v-.193c0-.943-.232-1.742-.696-2.395-.512-.71-1.196-1.065-2.052-1.065-.856 0-1.535.355-2.04 1.065-.455.653-.683 1.452-.683 2.395 0 .936.228 1.727.684 2.372.504.71 1.183 1.064 2.04 1.064.607 0 1.135-.157 1.583-.472.44-.298.776-.73 1.008-1.295.048-.12.048-.234 0-.34-.04-.087-.108-.148-.204-.18-.104-.04-.204-.044-.3-.012-.104.048-.18.133-.228.254zm-3.803-1.877c.048-.588.22-1.097.516-1.524.36-.526.834-.788 1.426-.788s1.072.266 1.44.8c.296.435.468.94.516 1.51h-3.9zm7.654 3.473c.072.3.212.448.42.448s.352-.15.432-.448l1.427-4.973 1.428 4.973c.072.3.212.448.42.448s.352-.15.432-.448l1.955-6.014c.032-.113.016-.21-.048-.29-.056-.065-.136-.11-.24-.133-.104-.025-.2-.017-.288.023-.096.032-.156.097-.18.194l-1.63 5.094-1.477-5.01c-.065-.208-.193-.313-.385-.313-.184 0-.308.105-.372.314l-1.476 5-1.63-5.083c-.033-.097-.097-.162-.193-.194-.088-.04-.18-.048-.276-.024-.104.023-.184.067-.24.132-.064.08-.076.177-.036.29l1.955 6.014zm10.727-6.425c-.952 0-1.696.356-2.232 1.066-.472.63-.708 1.424-.708 2.384 0 .95.236 1.742.708 2.37.536.72 1.28 1.078 2.232 1.078.943 0 1.683-.36 2.22-1.077.48-.628.72-1.42.72-2.37 0-.96-.24-1.755-.72-2.384-.537-.71-1.277-1.065-2.22-1.065zm0 .666c.703 0 1.25.287 1.643.86.36.508.54 1.15.54 1.924 0 .758-.18 1.395-.54 1.91-.392.574-.94.86-1.643.86-.712 0-1.268-.286-1.668-.86-.344-.507-.516-1.144-.516-1.91 0-.775.172-1.416.516-1.924.4-.573.956-.86 1.668-.86zm4.775-.254v6.063c0 .12.035.217.107.29.072.065.16.097.264.097.097 0 .18-.032.253-.097.08-.073.12-.17.12-.29v-4.72c.144-.314.352-.56.623-.738.304-.2.652-.302 1.044-.302.2 0 .296-.125.288-.375-.008-.242-.1-.363-.276-.363-.384 0-.728.097-1.032.29-.23.145-.447.36-.647.642v-.498c0-.113-.04-.2-.12-.266-.072-.048-.156-.072-.252-.072-.103 0-.19.028-.263.084-.072.065-.108.15-.108.254zm4.09-2.456v8.543c0 .112.036.204.108.277.072.065.16.097.264.097.096 0 .18-.036.252-.11.08-.072.12-.168.12-.29v-2.19l1.152-1.15 2.303 3.57c.07.097.163.154.275.17.096.008.188-.02.276-.085.08-.057.13-.138.145-.243.016-.105-.012-.21-.084-.314l-2.398-3.606 2.075-2.07c.096-.088.148-.185.156-.29 0-.09-.032-.17-.096-.242-.072-.064-.156-.1-.252-.11-.104 0-.2.042-.288.122l-3.263 3.255v-5.336c0-.13-.04-.23-.12-.302-.072-.065-.156-.097-.252-.097-.104 0-.192.032-.264.097-.072.072-.108.173-.108.302z"/></defs><g fill-rule="evenodd"><g id="scally" transform="translate(0 .08)"><use xlink:href="#path-scally"/><use xlink:href="#path-scally"/><use xlink:href="#path-scally"/><use xlink:href="#path-scally"/><use xlink:href="#path-scally"/></g><g id="css-framework" transform="translate(0 .08)"><use xlink:href="#path-css-framework"/><use xlink:href="#path-css-framework"/></g></g></svg>